<?xml version="1.0" encoding="UTF-8"?>
<svg version="1.1" xmlns="http://www.w3.org/2000/svg" width="505" height="512">
<path d="M0 0 C166.65 0 333.3 0 505 0 C505 168.96 505 337.92 505 512 C338.35 512 171.7 512 0 512 C0 343.04 0 174.08 0 0 Z " fill="#FEFEFD" transform="translate(0,0)"/>
<path d="M0 0 C166.65 0 333.3 0 505 0 C505 168.96 505 337.92 505 512 C338.35 512 171.7 512 0 512 C0 343.04 0 174.08 0 0 Z M216.1640625 30.85546875 C198.70828822 42.6126872 184.8904203 44.8103214 164.03742981 44.07342529 C154.34050069 43.79275007 145.36252781 44.99305923 136.8125 49.6875 C136.14541016 50.0376416 135.47832031 50.3877832 134.79101562 50.74853516 C129.28664145 53.69882653 123.68125488 56.83638388 119 61 C119 61.66 119 62.32 119 63 C117.515 63.495 117.515 63.495 116 64 C114.06853913 66.21283133 114.06853913 66.21283133 112.125 69.125 C111.74279297 69.67615479 111.36058594 70.22730957 110.96679688 70.79516602 C108.35716202 74.67006281 106.05703021 78.66004115 103.8359375 82.76953125 C103.00811768 84.29199463 103.00811768 84.29199463 102.16357422 85.84521484 C101.07439452 87.86980394 100.00483519 89.90510125 98.95751953 91.95166016 C95.29694349 98.76699137 91.75094956 102.31701237 85 106 C83.59500244 106.81754761 83.59500244 106.81754761 82.16162109 107.65161133 C78.05980537 110.03795893 73.93320301 112.3786934 69.79492188 114.70117188 C55.33788302 122.97936216 45.18916434 134.34638361 39 150 C38.60071289 150.90226318 38.60071289 150.90226318 38.19335938 151.82275391 C35.9750023 157.69419434 35.85094391 163.06991254 36.015625 169.25 C36.5743239 191.88511533 35.51979052 207.01874605 21.71557617 225.59277344 C12.00815082 239.21383704 11.08351985 258.04396066 13.47265625 274.1953125 C16.07941826 283.18143681 21.38574051 291.50529731 25.9296875 299.6328125 C26.43040771 300.5405542 26.93112793 301.4482959 27.44702148 302.38354492 C28.92739878 304.99662977 28.92739878 304.99662977 30.69555664 307.2043457 C36.85325362 315.55266509 35.78895662 325.01719758 35.6875 334.9375 C35.59723754 356.11460993 38.88817541 374.80691335 53.87109375 391.01953125 C62.29316787 398.85437818 72.72350841 404.28194338 82.75244141 409.75097656 C83.61788574 410.23018555 84.48333008 410.70939453 85.375 411.203125 C86.14585938 411.62239258 86.91671875 412.04166016 87.7109375 412.47363281 C92.6163119 415.74457999 95.66735442 419.71043864 98.48828125 424.82421875 C99.11283203 425.93603516 99.73738281 427.04785156 100.38085938 428.19335938 C101.65760685 430.50286516 102.93366092 432.81275443 104.20898438 435.12304688 C113.04749416 450.85106172 123.22713713 461.77254388 140 469 C140.79390137 469.3614209 141.58780273 469.7228418 142.40576172 470.09521484 C148.89459333 472.67519821 154.56301189 473.25984891 161.4453125 473.08203125 C162.72364456 473.0492659 162.72364456 473.0492659 164.02780151 473.01583862 C165.809738 472.96782379 167.59166948 472.91962253 169.37359619 472.87124634 C189.15251607 472.4489386 201.5885807 475.40597616 217.59985352 487.28662109 C231.35248025 497.10413044 248.462057 497.53430781 264.6875 495.5 C273.80237697 493.46206426 282.87056122 488.42465228 290.2890625 482.83984375 C303.84458152 473.138359 316.28966122 472.75869084 332.43554688 473.18383789 C350.54322242 473.5949809 367.07996539 469.22761039 380.61254883 456.54760742 C390.68899671 446.62650545 397.3684812 433.64959928 404.47265625 421.55078125 C404.96000244 420.72231689 405.44734863 419.89385254 405.94946289 419.0402832 C407.15259275 417.08612125 407.15259275 417.08612125 407 415 C407.72815918 414.72236816 408.45631836 414.44473633 409.20654297 414.15869141 C429.167125 405.879289 449.57142989 392.63778137 459.1875 372.75 C462.71020775 364.0065958 464.26351073 355.57310539 463.94921875 346.18359375 C463.25430786 323.50247044 466.04761032 309.69204518 479.10864258 290.97045898 C487.6362449 277.57748913 490.30735928 261.49277748 487.3125 245.953125 C484.88081677 236.02375181 480.80563773 227.58500753 474.60546875 219.40625 C463.91874632 204.56664031 463.66711488 190.99075214 464.13354492 173.26757812 C464.38552932 162.57268568 463.94605704 154.71949401 459 145 C458.54383301 144.02329346 458.08766602 143.04658691 457.61767578 142.0402832 C450.28764002 126.68753049 436.79088168 116.60339655 421.46484375 110 C407.61565963 103.75888182 402.349488 94.23244041 395.58618164 80.98046875 C386.16459081 63.27710092 373.08041245 52.24200793 354.15625 45.875 C348.24597525 44.23650799 342.8274225 43.94855301 336.7265625 44.17578125 C315.80281306 44.64109893 301.5448829 43.54642605 284.25219727 30.61767578 C264.69179594 16.56811272 235.6393011 17.50893535 216.1640625 30.85546875 Z " fill="#FEFEFE" transform="translate(0,0)"/>
<path d="M0 0 C2.83050801 0.20581808 5.57061828 0.30101824 8.40234375 0.30859375 C10.11523728 0.33378747 11.82812783 0.35918492 13.54101562 0.38476562 C16.22630786 0.41329365 18.91154711 0.43731655 21.59692383 0.45629883 C31.78061459 0.54227302 41.22648375 0.7643482 51 4 C51.86890869 4.27932373 52.73781738 4.55864746 53.63305664 4.84643555 C70.28454121 10.47219932 81.4749837 23.08045442 89.6875 38 C91.569818 41.3573397 93.45493687 44.71263599 95.35742188 48.05859375 C96.32889858 49.79824169 97.27062511 51.55605365 98.14257812 53.34765625 C101.63642136 60.05118541 107.59070069 62.6486849 114.125 66 C134.93298309 76.90179019 149.9664731 89.82756552 157.39508057 112.55537415 C158.37464909 116.51404765 158.17250794 120.25644008 157.94921875 124.30078125 C157.89574607 126.08797325 157.84820212 127.87535031 157.8059082 129.6628418 C157.77262924 131.04770279 157.77262924 131.04770279 157.73867798 132.46054077 C157.3644822 153.31308605 160.94893714 166.54186796 173.19287109 183.4309082 C182.3440674 196.44064054 183.76999755 212.45961598 181.4140625 227.8203125 C179.78420333 234.86309846 177.22929306 241.00828958 173.875 247.375 C173.3027771 248.46240479 173.3027771 248.46240479 172.71899414 249.57177734 C170.78564513 253.11947476 168.79165947 256.35900214 166.2265625 259.484375 C157.26195088 271.05228189 157.96210656 283.54656341 158.19726562 297.58837891 C158.48239935 317.65455619 153.9140581 333.00336657 140.171875 348.078125 C132.77858099 355.29227001 123.3717811 360.30034734 114.5 365.4375 C113.4171875 366.07365234 112.334375 366.70980469 111.21875 367.36523438 C110.1875 367.96529297 109.15625 368.56535156 108.09375 369.18359375 C107.16240234 369.72556396 106.23105469 370.26753418 105.27148438 370.82592773 C103 372 103 372 101 372 C100.7313916 372.71389893 100.4627832 373.42779785 100.18603516 374.16333008 C98.05733289 379.25460047 95.14460093 383.92343802 92.375 388.6875 C91.78332031 389.72583984 91.19164062 390.76417969 90.58203125 391.83398438 C79.60585718 410.74002935 66.42145221 423.24739326 45.09033203 429.22094727 C38.2900189 430.73043288 31.30050812 430.07170471 24.38824463 429.87097168 C4.96845161 429.43012521 -7.40330914 433.13802891 -23.30737305 444.20239258 C-37.26962319 453.5236409 -53.11191526 454.72711946 -69.46875 452.53515625 C-83.29554366 449.46051398 -97.83789329 440.85533882 -109.16918945 432.37695312 C-113.17485765 430.42852978 -116.68344278 430.63414144 -121.078125 430.69921875 C-122.89844108 430.69156349 -124.71875379 430.68307136 -126.5390625 430.67382812 C-129.37560072 430.67601606 -132.21144668 430.68711985 -135.04785156 430.71508789 C-152.76632108 430.85083171 -167.52380137 427.93913392 -182 417 C-183.16402344 416.14341797 -183.16402344 416.14341797 -184.3515625 415.26953125 C-192.78621635 408.47253356 -197.92135849 399.0208586 -202.859375 389.5546875 C-209.46292921 377.17799748 -215.07580197 369.95390141 -227.86132812 364.02685547 C-231.41224583 362.32192855 -234.75994461 360.29198447 -238.125 358.25 C-238.75212891 357.87166016 -239.37925781 357.49332031 -240.02539062 357.10351562 C-255.60029208 347.60333196 -264.99570037 332.36133714 -269.55151367 314.88427734 C-270.13365489 311.14044697 -269.92302896 307.51261626 -269.75390625 303.74609375 C-269.08857519 280.546371 -271.76153815 265.87614091 -285.19384766 246.78222656 C-287.81971046 242.73730462 -289.45467814 238.54557785 -291 234 C-291.40734375 233.00355469 -291.8146875 232.00710938 -292.234375 230.98046875 C-293.32360619 226.74024735 -293.29736763 222.67277176 -293.25 218.3125 C-293.23984863 216.97566162 -293.23984863 216.97566162 -293.22949219 215.61181641 C-292.98625819 200.0985785 -288.14228406 188.50836963 -280.4375 175.1875 C-279.86064453 174.17751953 -279.28378906 173.16753906 -278.68945312 172.12695312 C-274.17010533 164.22982289 -274.17010533 164.22982289 -272.33374023 161.7487793 C-270.40770709 157.77931066 -270.61620703 154.20620273 -270.6640625 149.8515625 C-270.65153258 148.02213199 -270.63849472 146.1927049 -270.625 144.36328125 C-270.62110291 141.50914887 -270.62484247 138.65536727 -270.63964844 135.80126953 C-270.68763218 120.52911141 -269.4071775 107.49111276 -260.5625 94.5 C-260.17054443 93.92306396 -259.77858887 93.34612793 -259.37475586 92.75170898 C-258.27303922 91.15158054 -257.13781956 89.574661 -256 88 C-255.484375 87.27941406 -254.96875 86.55882812 -254.4375 85.81640625 C-246.74435665 76.00327737 -234.03211627 70.49567441 -223.28125 64.78125 C-216.08066129 60.77906232 -211.83141828 57.28370902 -208 50 C-207.01224725 48.28094622 -206.02394899 46.56220579 -205.03515625 44.84375 C-203.54301575 42.17319105 -202.061101 39.49745401 -200.58789062 36.81640625 C-197.25187967 30.86142995 -193.71459034 24.98306113 -189 20 C-188.34 20 -187.68 20 -187 20 C-187 19.34 -187 18.68 -187 18 C-172.98323231 6.52965001 -158.10995576 0.48037174 -139.83984375 1.1484375 C-118.07958095 1.85031204 -104.78066274 -1.90279411 -86.84985352 -14.19091797 C-57.62959561 -32.73988662 -25.40487432 -16.93658288 0 0 Z M-128.30594826 15.78277779 C-130.90239917 17.64839833 -133.64478088 19.16903664 -136.43359375 20.73046875 C-137.41779297 21.29765625 -138.40199219 21.86484375 -139.41601562 22.44921875 C-140.41310547 23.02285156 -141.41019531 23.59648438 -142.4375 24.1875 C-144.68620951 25.4830528 -146.93490708 26.77862632 -149.18359375 28.07421875 C-150.31265137 28.72438965 -151.44170898 29.37456055 -152.60498047 30.04443359 C-155.91579285 31.95149581 -159.22569261 33.86012956 -162.53515625 35.76953125 C-163.6039502 36.38546143 -164.67274414 37.0013916 -165.77392578 37.63598633 C-167.92215241 38.87722368 -170.06767681 40.12314977 -172.21044922 41.3737793 C-177.19966594 44.27804611 -182.19836337 47.13023461 -187.31114197 49.81266785 C-204.97538565 58.89081972 -204.97538565 58.89081972 -215.89111328 74.65234375 C-218.28538879 79.7213339 -221.28708713 84.48306307 -224.125 89.3125 C-225.43086295 91.575395 -226.73421724 93.8397394 -228.03515625 96.10546875 C-236.90412644 111.52872331 -245.7861152 126.94416619 -254.75 142.3125 C-255.62700562 143.81611084 -255.62700562 143.81611084 -256.52172852 145.35009766 C-260.95737971 152.94563353 -260.95737971 152.94563353 -262.55056763 154.97790527 C-264.71279956 159.48620097 -264.51645778 163.76780931 -264.57861328 168.71166992 C-264.60314575 169.79229706 -264.62767822 170.87292419 -264.6529541 171.98629761 C-264.72743689 175.56763869 -264.77708281 179.14861948 -264.8203125 182.73046875 C-264.83628353 183.96217615 -264.85225456 185.19388355 -264.86870956 186.46291542 C-264.94066405 192.32871549 -264.99834162 198.19437032 -265.03677571 204.06048697 C-265.07716866 210.10209648 -265.15756064 216.13970139 -265.29638672 222.17993164 C-267.4406238 262.06846845 -267.4406238 262.06846845 -250.78924561 296.81466675 C-248.28411102 299.87436626 -246.51910921 303.081343 -244.640625 306.55859375 C-240.1312801 314.37767201 -235.62057157 322.19596365 -231.10546875 330.01171875 C-230.65993652 330.78354492 -230.2144043 331.55537109 -229.75537109 332.35058594 C-228.88365458 333.85501555 -228.0077384 335.35702031 -227.12744141 336.85644531 C-224.54488149 341.26495208 -222.07265725 345.71429387 -219.66796875 350.22265625 C-218.78637085 351.83116455 -218.78637085 351.83116455 -217.88696289 353.47216797 C-216.75155891 355.54411897 -215.64057877 357.62973671 -214.56030273 359.73095703 C-209.97455359 367.98183932 -204.20066217 371.61181506 -196 376 C-193.81390874 377.25869309 -191.6303002 378.52170817 -189.44921875 379.7890625 C-187.19637346 381.06957672 -184.94243321 382.34816611 -182.6875 383.625 C-180.21390363 385.0309032 -177.74154681 386.43897565 -175.26953125 387.84765625 C-174.65392334 388.19833664 -174.03831543 388.54901703 -173.40405273 388.9103241 C-166.56772087 392.80919084 -159.77417863 396.78057563 -152.98193359 400.75561523 C-144.16379285 405.91343747 -135.31659979 411.01989498 -126.46240234 416.11547852 C-125.42937988 416.71030029 -124.39635742 417.30512207 -123.33203125 417.91796875 C-122.42171143 418.44156982 -121.5113916 418.9651709 -120.57348633 419.50463867 C-118 421 -118 421 -116.01083374 422.56225586 C-111.49332816 424.71947135 -107.20158326 424.47537001 -102.25317383 424.49926758 C-101.16944992 424.51576859 -100.08572601 424.53226959 -98.96916199 424.54927063 C-95.38174325 424.59819502 -91.79471644 424.62351341 -88.20703125 424.64453125 C-86.97637121 424.65426153 -85.74571117 424.66399181 -84.47775841 424.67401695 C-78.6258044 424.71962569 -72.77399578 424.753961 -66.9218834 424.7700327 C-60.87693064 424.78682737 -54.83365374 424.83032633 -48.78930664 424.91918945 C-42.27988621 425.01336204 -35.77192687 425.05726613 -29.26184654 425.065588 C-26.79531478 425.07642562 -24.32879204 425.10383616 -21.86264992 425.14899635 C-6.5256171 425.41067522 4.49333281 424.09908056 17.2475071 415.2036705 C19.7716993 413.46997121 22.42450629 411.98534453 25.09375 410.48828125 C26.89687244 409.4314584 28.69895331 408.37285649 30.5 407.3125 C32.55175349 406.11011406 34.60384919 404.90831192 36.65625 403.70703125 C37.69652344 403.09811035 38.73679687 402.48918945 39.80859375 401.86181641 C45.19365146 398.72025811 50.59734831 395.61116825 56 392.5 C58.1615505 391.25276388 60.32300889 390.00536813 62.484375 388.7578125 C65.78252911 386.85426665 69.08190976 384.95299523 72.38476562 383.05761719 C75.67615825 381.16853656 78.9633796 379.27236797 82.25 377.375 C83.24386719 376.80716797 84.23773438 376.23933594 85.26171875 375.65429688 C93.56197792 370.84797482 99.05993452 366.81248785 103.5 358.1875 C104.36842081 356.56497279 105.23966726 354.94395572 106.11328125 353.32421875 C106.57686035 352.46103027 107.04043945 351.5978418 107.51806641 350.70849609 C110.14116238 345.91432365 112.91929691 341.2113837 115.6875 336.5 C116.89101229 334.44553933 118.09413054 332.39084778 119.296875 330.3359375 C120.21049805 328.77504395 120.21049805 328.77504395 121.14257812 327.18261719 C128.50274626 314.6563132 128.50274626 314.6563132 135.58886719 301.97558594 C137.37110698 298.83979698 139.463678 296.16456784 141.74707031 293.37597656 C157.47649471 272.63211429 155.29206314 248.10566517 154.95556641 223.18798828 C154.87007099 216.7840764 154.92075241 210.38950889 155.00724506 203.98591805 C155.96767966 167.29761215 155.96767966 167.29761215 139.93504333 135.48396301 C136.45821097 131.02084694 133.82528877 126.04863109 131.0625 121.125 C129.91600952 119.15565696 128.76664267 117.18798316 127.61328125 115.22265625 C123.96865712 108.96365129 120.37583713 102.67573662 116.78933716 96.3833313 C115.75973947 94.57956272 114.7269779 92.77764528 113.69311523 90.97631836 C110.78615072 85.90796467 107.89500185 80.83595679 105.1171875 75.6953125 C100.58543473 67.40729407 96.54343679 61.50716744 88 57 C86.73522405 56.29218961 85.47235141 55.58097228 84.2109375 54.8671875 C81.19876624 53.17279758 78.17336683 51.50491398 75.140625 49.84765625 C69.57703412 46.78897412 64.10041191 43.58817262 58.625 40.375 C48.53598948 34.4599088 38.39901214 28.63467794 28.23095703 22.85693359 C27.14540527 22.23898926 26.05985352 21.62104492 24.94140625 20.984375 C23.87897202 20.39488068 22.81653778 19.80538635 21.72190857 19.19802856 C19.19641371 17.75689542 16.85467377 16.19825388 14.5174408 14.47009277 C1.92295637 5.536302 -9.96251595 5.52679242 -25 5.671875 C-27.490895 5.66512033 -29.98178353 5.65539992 -32.47265625 5.6428833 C-37.66731152 5.62822587 -42.86023527 5.64928551 -48.0546875 5.69628906 C-54.6689642 5.75326659 -61.27918229 5.72041434 -67.89331055 5.66056442 C-73.02927496 5.62419647 -78.16429812 5.63603401 -83.30029297 5.66184235 C-85.73682147 5.66844958 -88.17343922 5.66055359 -90.60986328 5.63704681 C-105.51344336 5.52476461 -116.15154555 6.78089166 -128.30594826 15.78277779 Z " fill="#78564A" transform="translate(306,43)"/>
<path d="M0 0 C1.60928642 1.4108481 3.21432305 2.82657962 4.8125 4.25 C5.84375 5.013125 6.875 5.77625 7.9375 6.5625 C19.14705821 17.04100006 28.60649441 33.17660274 31.8125 48.25 C32.01359375 49.01183594 32.2146875 49.77367187 32.421875 50.55859375 C37.57752856 72.88814734 32.73967904 96.60535338 21.12109375 116.0859375 C19.44000655 118.55881288 17.66840541 120.90590236 15.8125 123.25 C15.12285156 124.16394531 14.43320312 125.07789063 13.72265625 126.01953125 C-0.63887576 144.46993529 -22.07263217 154.95739854 -45.05615234 158.02294922 C-67.93380817 160.46008781 -88.48551642 154.39028258 -107.1875 141.25 C-107.91453125 140.75757813 -108.6415625 140.26515625 -109.390625 139.7578125 C-114.44928812 136.18585572 -118.32853297 132.07166917 -122.1875 127.25 C-122.91066406 126.37472656 -123.63382813 125.49945313 -124.37890625 124.59765625 C-139.93005978 104.99425628 -145.27858181 81.45726503 -142.4375 56.75 C-139.87556616 39.43915536 -133.01736694 25.8432101 -122.1875 12.25 C-121.40375 11.198125 -120.62 10.14625 -119.8125 9.0625 C-88.66802127 -24.30658435 -35.53406234 -28.69507053 0 0 Z " fill="#77584C" transform="translate(302.1875,180.75)"/>
<path d="M0 0 C15.08725508 1.05259919 28.61799265 10.02030095 38.9543457 20.57104492 C42.90946319 25.2672454 45.73662999 30.63920217 48.6875 36 C50.569818 39.3573397 52.45493687 42.71263599 54.35742188 46.05859375 C55.32889858 47.79824169 56.27062511 49.55605365 57.14257812 51.34765625 C60.63642136 58.05118541 66.59070069 60.6486849 73.125 64 C93.93298309 74.90179019 108.9664731 87.82756552 116.39508057 110.55537415 C117.37464909 114.51404765 117.17250794 118.25644008 116.94921875 122.30078125 C116.89574607 124.08797325 116.84820212 125.87535031 116.8059082 127.6628418 C116.77262924 129.04770279 116.77262924 129.04770279 116.73867798 130.46054077 C116.3644822 151.31308605 119.94893714 164.54186796 132.19287109 181.4309082 C141.3440674 194.44064054 142.76999755 210.45961598 140.4140625 225.8203125 C137.78509643 237.18034019 132.44394266 248.4383277 125.2265625 257.625 C114.65778454 271.76223752 116.61637706 289.12199054 117 306 C116.34 305.67 115.68 305.34 115 305 C114.34 305.66 113.68 306.32 113 307 C111.76939579 304.53879159 111.7942277 302.74223134 111.68359375 299.9921875 C111.62075195 298.51298828 111.62075195 298.51298828 111.55664062 297.00390625 C111.51732422 295.97136719 111.47800781 294.93882812 111.4375 293.875 C111.39431641 292.83472656 111.35113281 291.79445313 111.30664062 290.72265625 C111.2003712 288.14857472 111.09833417 285.57439492 111 283 C109.68 285.31 108.36 287.62 107 290 C104 289 104 289 102 288 C103.24998534 283.66434161 104.85779899 280.76607961 107.54931641 277.18603516 C113.31058779 267.43548725 112.17295239 256.02185703 112.2109375 245.0234375 C112.23602983 242.56937809 112.26197536 240.11532728 112.28872681 237.6612854 C112.33502751 232.52203168 112.35211835 227.38359165 112.35205078 222.24414062 C112.35593928 217.02116001 112.41116493 211.80297295 112.51611328 206.58105469 C114.37341697 167.50733815 114.37341697 167.50733815 97.94309998 133.46986389 C94.44536251 129.02390868 91.82167254 124.04896943 89.0625 119.125 C87.91612585 117.15558924 86.76677248 115.18790697 85.61328125 113.22265625 C82.32203363 107.57051368 79.07148408 101.89585052 75.83300781 96.21337891 C74.4560038 93.79729536 73.07375995 91.38434352 71.68652344 88.97412109 C68.78767957 83.9315951 65.91334483 78.88804004 63.22265625 73.73046875 C58.49467706 64.81099204 54.31756204 59.61307437 44.99511719 55.01367188 C41.90122398 53.44173788 38.91942734 51.68328006 35.91699219 49.94458008 C33.24118665 48.39623479 30.55557987 46.8662195 27.8671875 45.33984375 C17.21324071 39.28111338 6.59707601 33.15758315 -4 27 C-5.01835937 26.41025391 -6.03671875 25.82050781 -7.0859375 25.21289062 C-9.91746602 23.56859749 -12.74118739 21.91174566 -15.5625 20.25 C-16.40756104 19.76080078 -17.25262207 19.27160156 -18.12329102 18.76757812 C-19.27075806 18.08598633 -19.27075806 18.08598633 -20.44140625 17.390625 C-21.44216187 16.8032959 -21.44216187 16.8032959 -22.46313477 16.20410156 C-24 15 -24 15 -25 12 C-24.34 11.34 -23.68 10.68 -23 10 C-19.18124277 10.34588302 -16.43547194 11.686873 -13.17578125 13.6328125 C-12.2425 14.18428955 -11.30921875 14.7357666 -10.34765625 15.30395508 C-8.84525391 16.20537231 -8.84525391 16.20537231 -7.3125 17.125 C-5.15275416 18.40303756 -2.99258279 19.68035623 -0.83203125 20.95703125 C0.28864746 21.6217041 1.40932617 22.28637695 2.56396484 22.97119141 C8.18655676 26.29105348 13.84230634 29.55292853 19.5 32.8125 C20.58547119 33.43858154 21.67094238 34.06466309 22.78930664 34.7097168 C31.16028904 39.53169363 39.5618797 44.29657645 48 49 C39.50954071 30.52076507 28.84529232 16.03275036 9.1875 8.6875 C5.81472678 7.50678028 2.51628147 6.63760221 -1 6 C-0.67 4.02 -0.34 2.04 0 0 Z " fill="#775548" transform="translate(347,45)"/>
<path d="M0 0 C2.94590954 0.22951056 5.80526164 0.34906171 8.75390625 0.37890625 C9.61056381 0.39590073 10.46722137 0.4128952 11.34983826 0.43040466 C14.08731723 0.48354824 16.82478115 0.52383912 19.5625 0.5625 C22.30371215 0.60641507 25.04480627 0.65310438 27.78587341 0.70530701 C29.49188894 0.73728156 31.19800876 0.76416625 32.90419006 0.78553772 C38.77657497 0.88828748 38.77657497 0.88828748 41 2 C41 3.65 41 5.3 41 7 C41.95519531 7.27972656 42.91039062 7.55945313 43.89453125 7.84765625 C52.4718932 10.46362914 59.74875821 13.57296998 67 19 C67.77859375 19.57234375 68.5571875 20.1446875 69.359375 20.734375 C76.29991548 26.33467318 80.52336634 33.42083452 85 41 C85.56460937 41.93457031 86.12921875 42.86914062 86.7109375 43.83203125 C89.27469299 48.2159115 89.27469299 48.2159115 90 50 C89.67 50.66 89.34 51.32 89 52 C76.47737176 45.04546896 63.98969484 38.04473709 51.625 30.8125 C50.64241211 30.23927002 49.65982422 29.66604004 48.64746094 29.07543945 C43.88526113 26.2924745 39.13861544 23.48706362 34.4140625 20.640625 C33.10381104 19.85981567 33.10381104 19.85981567 31.76708984 19.06323242 C30.13362025 18.08932965 28.50592376 17.10565286 26.88525391 16.1105957 C26.16515137 15.68351318 25.44504883 15.25643066 24.703125 14.81640625 C24.08083008 14.43943604 23.45853516 14.06246582 22.81738281 13.67407227 C20.52215508 12.82276601 19.27406513 13.2111091 17 14 C17 14.66 17 15.32 17 16 C13.35064749 14.64951696 10.22425559 12.95386736 6.91464233 10.92054749 C0.93235411 7.63411036 -3.90084592 7.15979529 -10.63427734 7.27124023 C-12.29250015 7.26269768 -12.29250015 7.26269768 -13.98422241 7.25398254 C-17.60213085 7.24295693 -21.21819256 7.27481693 -24.8359375 7.30859375 C-27.36414376 7.31217407 -29.89235406 7.3135276 -32.42056274 7.3127594 C-37.70099937 7.31743643 -42.98096848 7.34143746 -48.26123047 7.38256836 C-54.35710073 7.4298783 -60.45240261 7.44555692 -66.5484432 7.4433617 C-72.43409424 7.44152892 -78.31958262 7.45718229 -84.20518875 7.48173714 C-86.70185868 7.49128083 -89.19854521 7.49719555 -91.69523239 7.49941826 C-95.1778076 7.50591777 -98.65966811 7.53216393 -102.14208984 7.56420898 C-103.68817932 7.56216965 -103.68817932 7.56216965 -105.26550293 7.56008911 C-110.39802322 7.62920197 -113.7625025 7.79362312 -118 11 C-118.66 11 -119.32 11 -120 11 C-120.66 10.34 -121.32 9.68 -122 9 C-128.29688122 8.99003658 -133.32395341 12.88141561 -138.5 16.0625 C-140.49174539 17.26375418 -142.48393167 18.46427766 -144.4765625 19.6640625 C-145.4346582 20.24446289 -146.39275391 20.82486328 -147.37988281 21.42285156 C-150.518492 23.31210011 -153.68614219 25.13441744 -156.875 26.9375 C-165.31653429 31.72919217 -173.68916122 36.63885794 -182.0703125 41.53515625 C-183.03485352 42.09605957 -183.99939453 42.65696289 -184.99316406 43.23486328 C-187.11914866 44.48290393 -189.2347648 45.74868663 -191.34277344 47.02685547 C-192.42333008 47.6767041 -193.50388672 48.32655273 -194.6171875 48.99609375 C-195.60058105 49.59478271 -196.58397461 50.19347168 -197.59716797 50.81030273 C-198.39010254 51.20290283 -199.18303711 51.59550293 -200 52 C-200.66 51.67 -201.32 51.34 -202 51 C-191.267384 31.37239979 -180.03016109 15.42507142 -157.8125 8.1875 C-153.7288434 7.03917318 -150.22301929 6.7245857 -146 7 C-145.34 5.68 -144.68 4.36 -144 3 C-145.32 2.34 -146.64 1.68 -148 1 C-147.05608398 1.05349609 -146.11216797 1.10699219 -145.13964844 1.16210938 C-121.55601482 2.31866404 -106.33746281 -0.83590684 -86.84985352 -14.19091797 C-57.62959561 -32.73988662 -25.40487432 -16.93658288 0 0 Z " fill="#7A594B" transform="translate(306,43)"/>
<path d="M0 0 C1.29550781 0.00322266 2.59101563 0.00644531 3.92578125 0.00976562 C5.28906317 0.01812027 6.65234442 0.02658521 8.015625 0.03515625 C9.39452965 0.04017457 10.77343604 0.0447369 12.15234375 0.04882812 C15.52348159 0.06061532 18.89453128 0.0770699 22.265625 0.09765625 C22.265625 0.42765625 22.265625 0.75765625 22.265625 1.09765625 C20.56792969 1.15373047 20.56792969 1.15373047 18.8359375 1.2109375 C17.35413295 1.27658707 15.87236361 1.34303476 14.390625 1.41015625 C13.27107422 1.44399414 13.27107422 1.44399414 12.12890625 1.47851562 C10.166021 1.5757757 8.21234178 1.82807919 6.265625 2.09765625 C5.605625 3.08765625 4.945625 4.07765625 4.265625 5.09765625 C2.0859375 5.65234375 2.0859375 5.65234375 -0.609375 5.97265625 C-14.89230609 8.25045703 -28.621562 15.83409193 -37.734375 27.09765625 C-41.02794012 31.92152419 -43.8846426 37.00411461 -46.734375 42.09765625 C-47.48694616 43.4187302 -48.2408025 44.73907306 -48.99609375 46.05859375 C-49.56972656 47.06148437 -50.14335938 48.064375 -50.734375 49.09765625 C-43.3225965 45.07837826 -35.94829912 40.99842632 -28.609375 36.84765625 C-27.60511475 36.27974365 -26.60085449 35.71183105 -25.56616211 35.12670898 C-19.78344244 31.8483131 -14.0217099 28.53858533 -8.296875 25.16015625 C-7.64605957 24.77714355 -6.99524414 24.39413086 -6.32470703 23.99951172 C-3.12747397 22.11423879 0.06334651 20.21923553 3.24462891 18.30712891 C6.49618332 16.35304848 9.75560885 14.41257913 13.015625 12.47265625 C14.05259521 11.84367432 15.08956543 11.21469238 16.15795898 10.56665039 C17.13708252 9.9864917 18.11620605 9.40633301 19.125 8.80859375 C19.99608398 8.28571777 20.86716797 7.7628418 21.76464844 7.22412109 C24.48747803 5.99773143 26.3145436 5.86815709 29.265625 6.09765625 C30.255625 8.07765625 30.255625 8.07765625 31.265625 10.09765625 C30.63398438 10.44844238 30.00234375 10.79922852 29.3515625 11.16064453 C15.61442914 18.79870842 1.96307827 26.56017808 -11.59765625 34.5078125 C-18.16849211 38.35791995 -24.76185242 42.16850308 -31.359375 45.97265625 C-32.90419556 46.86392212 -32.90419556 46.86392212 -34.48022461 47.77319336 C-35.48448486 48.35206299 -36.48874512 48.93093262 -37.5234375 49.52734375 C-38.52536133 50.11483398 -39.52728516 50.70232422 -40.55957031 51.30761719 C-42.80839775 52.57556572 -45.02178569 53.74174547 -47.33886719 54.86425781 C-56.55574276 59.45976581 -61.07294071 64.83572976 -65.734375 74.09765625 C-66.40016643 75.34835529 -67.07009367 76.59686046 -67.74389648 77.84326172 C-69.10833993 80.37328531 -70.45623844 82.91103318 -71.79248047 85.45605469 C-74.62323481 90.81060349 -77.71223039 96.01160557 -80.796875 101.22265625 C-81.94139804 103.17632591 -83.08462075 105.13075792 -84.2265625 107.0859375 C-84.79729492 108.06256348 -85.36802734 109.03918945 -85.95605469 110.04541016 C-89.70837047 116.48575227 -93.42650667 122.94586922 -97.14672852 129.40478516 C-97.71576904 130.39269043 -98.28480957 131.3805957 -98.87109375 132.3984375 C-99.4273494 133.3918515 -99.98360504 134.3852655 -100.55671692 135.40878296 C-102.07541355 138.05790978 -103.72731465 140.56108922 -105.47244263 143.06616211 C-114.1732575 156.01445933 -115.28909446 166.72035016 -115.02734375 182.046875 C-115.02927081 184.28417363 -115.03605993 186.52147277 -115.04743958 188.75874329 C-115.06426241 194.58076781 -115.01609577 200.40040933 -114.95324707 206.2220459 C-114.90070967 212.18902725 -114.91120765 218.15588497 -114.91601562 224.12304688 C-114.91631312 235.78196031 -114.84778628 247.43933218 -114.734375 259.09765625 C-115.064375 259.09765625 -115.394375 259.09765625 -115.734375 259.09765625 C-115.74468246 257.98709869 -115.75498993 256.87654114 -115.76560974 255.73233032 C-115.86321606 245.28443435 -115.96593784 234.83659964 -116.07371426 224.38880348 C-116.12896217 219.017036 -116.18238515 213.64526309 -116.23168945 208.2734375 C-116.27930544 203.09277874 -116.33164724 197.91218762 -116.38731575 192.73160934 C-116.40775185 190.75160778 -116.42646283 188.77158766 -116.44344902 186.7915535 C-116.46746526 184.02584348 -116.49752358 181.26026201 -116.52905273 178.49462891 C-116.53768593 177.25709114 -116.53768593 177.25709114 -116.54649353 175.99455261 C-116.50286916 171.9141381 -116.50286916 171.9141381 -117.734375 168.09765625 C-118.724375 168.09765625 -119.714375 168.09765625 -120.734375 168.09765625 C-120.97414063 168.93941406 -121.21390625 169.78117188 -121.4609375 170.6484375 C-122.91097867 174.576003 -124.8725716 177.77108857 -127.109375 181.28515625 C-134.47190404 193.32746991 -136.57064903 204.1788812 -137.734375 218.09765625 C-138.064375 218.09765625 -138.394375 218.09765625 -138.734375 218.09765625 C-139.064375 215.12765625 -139.394375 212.15765625 -139.734375 209.09765625 C-141.23180619 210.59508744 -141.06640193 212.08589864 -141.296875 214.16015625 C-141.44125 215.45953125 -141.585625 216.75890625 -141.734375 218.09765625 C-142.064375 218.09765625 -142.394375 218.09765625 -142.734375 218.09765625 C-143.28046846 200.71368095 -138.80306821 188.20770288 -130.171875 173.28515625 C-129.59501953 172.27517578 -129.01816406 171.26519531 -128.42382812 170.22460938 C-123.90448033 162.32747914 -123.90448033 162.32747914 -122.06811523 159.84643555 C-120.14208209 155.87696691 -120.35058203 152.30385898 -120.3984375 147.94921875 C-120.38590758 146.11978824 -120.37286972 144.29036115 -120.359375 142.4609375 C-120.35547791 139.60680512 -120.35921747 136.75302352 -120.37402344 133.89892578 C-120.42200718 118.62676766 -119.1415525 105.58876901 -110.296875 92.59765625 C-109.90491943 92.02072021 -109.51296387 91.44378418 -109.10913086 90.84936523 C-108.00741422 89.24923679 -106.87219456 87.67231725 -105.734375 86.09765625 C-105.21875 85.37707031 -104.703125 84.65648437 -104.171875 83.9140625 C-96.47873165 74.10093362 -83.76649127 68.59333066 -73.015625 62.87890625 C-65.81503629 58.87671857 -61.56579328 55.38136527 -57.734375 48.09765625 C-56.74662225 46.37860247 -55.75832399 44.65986204 -54.76953125 42.94140625 C-53.27739075 40.2708473 -51.795476 37.59511026 -50.32226562 34.9140625 C-46.98625467 28.9590862 -43.44896534 23.08071738 -38.734375 18.09765625 C-38.074375 18.09765625 -37.414375 18.09765625 -36.734375 18.09765625 C-36.734375 17.43765625 -36.734375 16.77765625 -36.734375 16.09765625 C-34.87104817 14.57283888 -33.02985801 13.2020255 -31.046875 11.84765625 C-30.46687744 11.44869141 -29.88687988 11.04972656 -29.28930664 10.63867188 C-20.24290171 4.58580458 -11.02160633 -0.04834038 0 0 Z " fill="#78574A" transform="translate(155.734375,44.90234375)"/>
<path d="M0 0 C0.33 0 0.66 0 1 0 C0.9959358 0.56670127 0.9918716 1.13340254 0.98768425 1.71727657 C0.89171784 15.58477847 0.85268046 29.45146958 0.87302971 43.31930447 C0.88185581 50.02621916 0.87121445 56.73197582 0.81835938 63.4387207 C0.76794723 69.92316647 0.7670385 76.40597611 0.79904556 82.8905201 C0.80276849 85.35219945 0.78928539 87.81397276 0.75750351 90.27544975 C0.56567682 106.22528095 2.13579587 117.16620782 12 130 C11.4961377 130.60666504 10.99227539 131.21333008 10.47314453 131.83837891 C8.6824936 133.93095035 8.6824936 133.93095035 9.4296875 136.5859375 C11.67386312 141.46506559 14.37236984 146.01755771 17.125 150.625 C18.38800338 152.76226221 19.64966529 154.90031758 20.91015625 157.0390625 C21.57418457 158.16473633 22.23821289 159.29041016 22.92236328 160.45019531 C26.88093648 167.19137468 30.7256323 173.99912339 34.58282471 180.79864502 C39.13226145 188.8277794 39.13226145 188.8277794 43.96484375 196.6875 C46 200 46 200 46 202 C41.22882776 200.3060927 37.02555553 197.81876656 32.6875 195.25 C31.93218994 194.80479004 31.17687988 194.35958008 30.39868164 193.90087891 C25.34241456 190.88647122 20.5833339 187.70567421 16 184 C15.34 185.32 14.68 186.64 14 188 C3.97036028 178.85532849 -2.92261658 165.40525975 -5 152 C-4.96465304 149.2388521 -4.87768725 146.50281338 -4.75390625 143.74609375 C-4.08857519 120.546371 -6.76153815 105.87614091 -20.19384766 86.78222656 C-22.81953017 82.73758234 -24.45574723 78.54568603 -26 74 C-26.41507813 72.97261719 -26.83015625 71.94523437 -27.2578125 70.88671875 C-28.221896 67.13694137 -28.128681 63.6353317 -27.875 59.8125 C-27.85179687 59.10158203 -27.82859375 58.39066406 -27.8046875 57.65820312 C-27.6796875 55.58203125 -27.6796875 55.58203125 -27 52 C-25.0078125 50.296875 -25.0078125 50.296875 -23 49 C-22.23432182 46.85177647 -22.23432182 46.85177647 -22 44.4375 C-20.78342107 35.17629287 -16.11154168 26.91031525 -11.5 18.9375 C-11.02691406 18.08478516 -10.55382812 17.23207031 -10.06640625 16.35351562 C-9.60105469 15.54462891 -9.13570312 14.73574219 -8.65625 13.90234375 C-8.24181641 13.17523193 -7.82738281 12.44812012 -7.40039062 11.69897461 C-5.71267283 9.65141043 -4.58380724 9.36081121 -2 9 C-1.67 9.99 -1.34 10.98 -1 12 C-0.67 8.04 -0.34 4.08 0 0 Z " fill="#7D5C51" transform="translate(41,203)"/>
<path d="M0 0 C13.2 0 26.4 0 40 0 C45.63765182 10.14777328 45.63765182 10.14777328 47.25 15.75 C47.56453125 16.81734375 47.8790625 17.8846875 48.203125 18.984375 C50.20746088 26.56941079 50 31.498775 50 40 C35.15 40 20.3 40 5 40 C4.0244943 36.09797718 3.79265869 32.75784108 3.625 28.75 C3.29321313 22.1081041 2.37319535 15.73656706 1.01611328 9.22949219 C0.35177241 6.03178719 0 3.2941405 0 0 Z " fill="#FDFCFC" transform="translate(283,209)"/>
<path d="M0 0 C1.6874269 0.00015917 3.37485866 0.00585622 5.06225586 0.01586914 C6.39189613 0.01799156 6.39189613 0.01799156 7.74839783 0.02015686 C10.59133215 0.02577324 13.43418892 0.03832848 16.27709961 0.05102539 C18.19962452 0.05603828 20.12215065 0.06060155 22.04467773 0.06469727 C26.7680151 0.07574798 31.49129419 0.09302356 36.21459961 0.11352539 C36.08142334 1.06255737 36.08142334 1.06255737 35.94555664 2.03076172 C35.57407145 4.68295992 35.20696091 7.33575294 34.83959961 9.98852539 C34.65010742 11.33624023 34.65010742 11.33624023 34.45678711 12.71118164 C33.19833713 21.83494396 32.23306755 30.94731393 31.21459961 40.11352539 C16.36459961 40.11352539 1.51459961 40.11352539 -13.78540039 40.11352539 C-13.78540039 31.79456744 -13.66699161 0.40987753 0 0 Z " fill="#FDFCFC" transform="translate(175.785400390625,208.886474609375)"/>
<path d="M0 0 C14.85 0 29.7 0 45 0 C46.375 12.125 46.375 12.125 46.79443359 15.85205078 C46.96966553 17.38321533 46.96966553 17.38321533 47.1484375 18.9453125 C47.32125244 20.46922607 47.32125244 20.46922607 47.49755859 22.02392578 C48.256018 28.02600053 49.14442812 34.01099685 50 40 C36.8 40 23.6 40 10 40 C3.17073171 26.34146341 3.17073171 26.34146341 1.625 20 C1.30789062 18.7625 0.99078125 17.525 0.6640625 16.25 C0 12 0 12 0 0 Z " fill="#FEFDFD" transform="translate(162,252)"/>
<path d="M0 0 C14.85 0 29.7 0 45 0 C45 16.19776119 45 16.19776119 42.8125 22.8125 C42.61591797 23.48474609 42.41933594 24.15699219 42.21679688 24.84960938 C40.45310502 30.53141053 38.01030643 34.58144843 35 40 C21.8 40 8.6 40 -5 40 C-3.625 30.125 -3.625 30.125 -3.20556641 27.14111328 C-1.96114389 18.10403113 -1.00883066 9.0794759 0 0 Z " fill="#FEFDFD" transform="translate(288,252)"/>
<path d="M0 0 C3.56783732 1.18927911 3.77141077 1.84307889 5.53125 5.0234375 C6.00643066 5.8700293 6.48161133 6.71662109 6.97119141 7.58886719 C7.72795166 8.96800293 7.72795166 8.96800293 8.5 10.375 C9.58015892 12.30500676 10.66090016 14.23468771 11.7421875 16.1640625 C12.28713867 17.1427832 12.83208984 18.12150391 13.39355469 19.12988281 C15.76187947 23.36119377 18.18921439 27.5572686 20.625 31.75 C21.07681641 32.52972168 21.52863281 33.30944336 21.99414062 34.11279297 C24.1600516 37.84704163 26.33489628 41.57584238 28.5234375 45.296875 C29.13614502 46.34077393 29.13614502 46.34077393 29.76123047 47.40576172 C30.58774277 48.80304641 31.42274818 50.19534168 32.26611328 51.58251953 C34.46807573 55.2326271 36.42701744 58.85915041 38.15625 62.7578125 C44.99206669 77.42219324 55.4184628 83.0209732 69.50830078 90.18945312 C75.11862797 93.09856978 80.54778101 96.30731515 86 99.5 C88.1410359 100.73722058 90.28296795 101.97289162 92.42578125 103.20703125 C96.40462432 105.50249458 100.38330773 107.79823414 104.36178589 110.09432983 C106.15066918 111.12673478 107.93958717 112.15907956 109.72851562 113.19140625 C111.97337636 114.48685948 114.2181719 115.7824257 116.46289062 117.078125 C121.63571774 120.06307914 126.81145009 123.04245317 132 126 C132 127.65 132 129.3 132 131 C130.5 129.625 130.5 129.625 129 128 C129 127.34 129 126.68 129 126 C127.62908203 126.69222656 127.62908203 126.69222656 126.23046875 127.3984375 C122.27740027 128.50414943 120.14608282 127.40398961 116.61328125 125.4765625 C114.49973892 124.21469319 112.40023275 122.92912702 110.3125 121.625 C108.58750006 120.587609 106.86246617 119.55027105 105.13577271 118.51570129 C103.32130262 117.42557307 101.5124714 116.3264603 99.70361328 115.22705078 C94.20791441 111.90355055 88.61887811 108.743386 83.03305054 105.574646 C80.21167894 103.97309859 77.39519543 102.36300384 74.578125 100.75390625 C73.51658203 100.14820801 72.45503906 99.54250977 71.36132812 98.91845703 C65.57284189 95.61471467 59.78647791 92.30725829 54 89 C55.88581725 92.38068886 57.78542143 95.75343752 59.6875 99.125 C60.48317383 100.55199219 60.48317383 100.55199219 61.29492188 102.0078125 C65.324062 109.12678401 69.17150727 114.91903528 75.8125 119.875 C76.60269531 120.47054687 77.39289063 121.06609375 78.20703125 121.6796875 C78.79871094 122.11539063 79.39039063 122.55109375 80 123 C79.814375 123.61875 79.62875 124.2375 79.4375 124.875 C78.76313824 127.04160178 78.76313824 127.04160178 80 129 C72.94410689 127.88158338 67.18069323 121.59005143 62.7734375 116.35546875 C59.04954677 111.14620587 55.89141458 105.84605207 52.92578125 100.1796875 C46.05254512 87.26312301 40.60409666 79.06066106 27.12695312 72.99902344 C23.54015119 71.31431344 20.1942603 69.2455028 16.8125 67.1875 C16.2131665 66.8376001 15.61383301 66.4877002 14.99633789 66.12719727 C10.95811025 63.73783169 7.42835246 61.18604785 4 58 C3.625 55.1875 3.625 55.1875 4 53 C5.485 52.505 5.485 52.505 7 52 C8.8125 53.265625 8.8125 53.265625 11 55.25 C18.58831674 61.63777708 27.36281361 66.19062735 36 71 C35.62415771 70.34854004 35.24831543 69.69708008 34.86108398 69.02587891 C34.32813721 68.10210449 33.79519043 67.17833008 33.24609375 66.2265625 C32.64611572 65.18661133 32.0461377 64.14666016 31.42797852 63.07519531 C30.08598141 60.74904504 28.74401623 58.42287638 27.40209961 56.09667969 C23.17498672 48.769074 23.17498672 48.769074 18.94628906 41.44238281 C18.61425476 40.86723434 18.28222046 40.29208588 17.94012451 39.69950867 C16.9544255 37.99234559 15.96842509 36.28535654 14.98242188 34.57836914 C13.71042774 32.37324502 12.44086388 30.1667171 11.17382812 27.95874023 C8.56731244 23.41933812 5.95525163 18.89133727 3.2109375 14.43359375 C2.81769287 13.78422852 2.42444824 13.13486328 2.01928711 12.46582031 C1.03515251 10.8480283 0.03224959 9.24169107 -0.97265625 7.63671875 C-2 5 -2 5 -1.18359375 2.14453125 C-0.79300781 1.43683594 -0.40242188 0.72914063 0 0 Z " fill="#78564A" transform="translate(51,334)"/>
<path d="M0 0 C11.88 0 23.76 0 36 0 C36 13.2 36 26.4 36 40 C25.44 40 14.88 40 4 40 C3.525625 37.48375 3.05125 34.9675 2.5625 32.375 C2.41498291 31.59431152 2.26746582 30.81362305 2.11547852 30.00927734 C1.99615967 29.3745752 1.87684082 28.73987305 1.75390625 28.0859375 C1.63345947 27.4470459 1.5130127 26.8081543 1.38891602 26.14990234 C-0.32579594 16.67108658 0 10.83827962 0 0 Z " fill="#FEFDFD" transform="translate(210,252)"/>
<path d="M0 0 C10.56 0 21.12 0 32 0 C33.45708213 5.09978745 34.52307043 9.73228939 35.125 14.9375 C35.21136719 15.58267578 35.29773438 16.22785156 35.38671875 16.89257812 C36.31093474 24.67506354 36 32.00682622 36 40 C24.12 40 12.24 40 0 40 C0 26.8 0 13.6 0 0 Z " fill="#FDFDFC" transform="translate(249,209)"/>
<path d="M0 0 C10.56 0 21.12 0 32 0 C32 13.2 32 26.4 32 40 C20.12 40 8.24 40 -4 40 C-4 20.42325581 -4 20.42325581 -2.5625 12.6875 C-2.42779297 11.89150391 -2.29308594 11.09550781 -2.15429688 10.27539062 C-1.55589734 6.79883527 -0.85682603 3.42730413 0 0 Z " fill="#FDFDFC" transform="translate(214,209)"/>
<path d="M0 0 C11.88 0 23.76 0 36 0 C36 7.80379688 35.99584911 15.13732984 35.125 22.8125 C35.04636719 23.59302734 34.96773438 24.37355469 34.88671875 25.17773438 C34.32417705 30.36609978 33.29736407 34.81054374 32 40 C21.44 40 10.88 40 0 40 C0 26.8 0 13.6 0 0 Z " fill="#FEFEFD" transform="translate(249,252)"/>
<path d="M0 0 C0.66666667 2 1.33333333 4 2 6 C0.89591797 6.77923828 0.89591797 6.77923828 -0.23046875 7.57421875 C-14.02967846 17.43600535 -23.22006755 28.51607208 -28 45 C-28.27249543 48.3811771 -28.27249543 48.3811771 -28.1953125 51.9296875 C-28.18886719 53.21875 -28.18242188 54.5078125 -28.17578125 55.8359375 C-28.15907463 57.18229442 -28.14214479 58.52864859 -28.125 59.875 C-28.11495664 61.24478517 -28.10583317 62.61457742 -28.09765625 63.984375 C-28.07414412 67.32309756 -28.0412793 70.66145761 -28 74 C-27.6282666 73.36199463 -27.2565332 72.72398926 -26.87353516 72.06665039 C-19.27573014 59.02862967 -11.66497199 45.99866218 -4 33 C-3.34 33.66 -2.68 34.32 -2 35 C-1.34 34.34 -0.68 33.68 0 33 C1.06482798 35.6815866 1.11592488 36.72547884 -0.02539062 39.42822266 C-0.56357422 40.3310498 -1.10175781 41.23387695 -1.65625 42.1640625 C-2.26855469 43.20691406 -2.88085938 44.24976563 -3.51171875 45.32421875 C-4.16785156 46.41347656 -4.82398438 47.50273437 -5.5 48.625 C-7.90103813 52.65981674 -7.90103813 52.65981674 -10.23606873 56.73275757 C-12.49966662 60.71622908 -14.97663619 64.2762653 -17.82836914 67.86572266 C-33.37301317 88.83356785 -30.96145205 112.5869695 -30.49353027 137.6050415 C-30.39928898 143.5255098 -30.392196 149.44608221 -30.37695312 155.3671875 C-30.33479437 166.91312484 -30.19866006 178.45576602 -30 190 C-30.33 190 -30.66 190 -31 190 C-31.01030746 188.88944244 -31.02061493 187.77888489 -31.03123474 186.63467407 C-31.12884106 176.1867781 -31.23156284 165.73894339 -31.33933926 155.29114723 C-31.39458717 149.91937975 -31.44801015 144.54760684 -31.49731445 139.17578125 C-31.54493044 133.99512249 -31.59727224 128.81453137 -31.65294075 123.63395309 C-31.67337685 121.65395153 -31.69208783 119.67393141 -31.70907402 117.69389725 C-31.73309026 114.92818723 -31.76314858 112.16260576 -31.79467773 109.39697266 C-31.80331093 108.15943489 -31.80331093 108.15943489 -31.81211853 106.89689636 C-31.76849416 102.81648185 -31.76849416 102.81648185 -33 99 C-33.99 99 -34.98 99 -36 99 C-36.23976563 99.84175781 -36.47953125 100.68351562 -36.7265625 101.55078125 C-38.17660367 105.47834675 -40.1381966 108.67343232 -42.375 112.1875 C-49.73752904 124.22981366 -51.83627403 135.08122495 -53 149 C-53.33 149 -53.66 149 -54 149 C-54.33 146.03 -54.66 143.06 -55 140 C-56.49743119 141.49743119 -56.33202693 142.98824239 -56.5625 145.0625 C-56.706875 146.361875 -56.85125 147.66125 -57 149 C-57.33 149 -57.66 149 -58 149 C-58.54609346 131.6160247 -54.06869321 119.11004663 -45.4375 104.1875 C-44.86064453 103.17751953 -44.28378906 102.16753906 -43.68945312 101.12695312 C-39.17010533 93.22982289 -39.17010533 93.22982289 -37.33374023 90.7487793 C-35.40770709 86.77931066 -35.61620703 83.20620273 -35.6640625 78.8515625 C-35.65153258 77.02213199 -35.63849472 75.1927049 -35.625 73.36328125 C-35.62110291 70.50914887 -35.62484247 67.65536727 -35.63964844 64.80126953 C-35.68763218 49.52911141 -34.4071775 36.49111276 -25.5625 23.5 C-25.17054443 22.92306396 -24.77858887 22.34612793 -24.37475586 21.75170898 C-23.27303922 20.15158054 -22.13781956 18.574661 -21 17 C-20.484375 16.27941406 -19.96875 15.55882812 -19.4375 14.81640625 C-14.34158407 8.31621804 -7.01790041 4.15319596 0 0 Z " fill="#78574A" transform="translate(71,114)"/>
<path d="M0 0 C13.2 0 26.4 0 40 0 C42.475 7.425 42.475 7.425 45 15 C46.25612475 17.92369692 47.48195171 20.69424892 48.9375 23.5 C49.27813477 24.16870117 49.61876953 24.83740234 49.96972656 25.52636719 C52.46563287 30.29127923 55.17636664 34.17636664 59 38 C59.78375 38.804375 60.5675 39.60875 61.375 40.4375 C61.91125 40.953125 62.4475 41.46875 63 42 C46.24601702 41.11821142 31.88789263 33.26864425 19 23 C18.01 22.2575 17.02 21.515 16 20.75 C15.34 20.1725 14.68 19.595 14 19 C14 18.34 14 17.68 14 17 C13.34 17 12.68 17 12 17 C10.1953125 15.05859375 10.1953125 15.05859375 8.125 12.4375 C7.10792969 11.16712891 7.10792969 11.16712891 6.0703125 9.87109375 C3.81104704 6.73796146 1.91645817 3.3538018 0 0 Z " fill="#FAF9F8" transform="translate(173,294)"/>
<path d="M0 0 C-1.34384766 1.03447266 -1.34384766 1.03447266 -2.71484375 2.08984375 C-5.98864326 4.82553709 -8.32294682 7.95148424 -10.5625 11.5625 C-10.94744629 12.17383789 -11.33239258 12.78517578 -11.72900391 13.41503906 C-17.10556232 22.17263864 -20.04553771 31.15179238 -23 41 C-36.2 41 -49.4 41 -63 41 C-53.30206289 24.83677148 -41.91795798 14.35644591 -25 6 C-24.25234375 5.62101563 -23.5046875 5.24203125 -22.734375 4.8515625 C-16.20391804 1.72727913 -7.1702438 -2.50362432 0 0 Z " fill="#FBFAF8" transform="translate(236,166)"/>
<path d="M0 0 C13.2 0 26.4 0 40 0 C31.76664527 12.93812885 31.76664527 12.93812885 26.375 18.1875 C25.77308838 18.77917969 25.17117676 19.37085938 24.55102539 19.98046875 C18.89692838 25.37363018 12.94698304 29.37879013 6 33 C4.92878906 33.56332031 3.85757812 34.12664062 2.75390625 34.70703125 C-15.24180179 43.58606607 -15.24180179 43.58606607 -23 41 C-22.10152344 40.30261719 -21.20304687 39.60523438 -20.27734375 38.88671875 C-9.30879249 29.70711278 -3.38480247 13.53920987 0 0 Z " fill="#FBFBFA" transform="translate(282,294)"/>
<path d="M0 0 C22.76664393 2.74840566 42.23595493 14.65879913 57 32 C58.98 35.3 60.96 38.6 63 42 C49.8 42 36.6 42 23 42 C21.02 36.06 19.04 30.12 17 24 C12.53593666 14.88587068 7.40232292 6.96689216 0 0 Z " fill="#FBFAF9" transform="translate(259,165)"/>
<path d="M0 0 C3.8952509 3.8952509 6.26391792 8.24820528 9 13 C9.80050781 14.34384766 9.80050781 14.34384766 10.6171875 15.71484375 C18.60763061 29.56892048 20.72246438 45.55353094 16.76293945 61.14355469 C13.70825294 71.33016309 8.21061061 81.39474771 2 90 C1.01 90.495 1.01 90.495 0 91 C0 60.97 0 30.94 0 0 Z " fill="#F7F5F3" transform="translate(464,213)"/>
<path d="M0 0 C0.495 0.99 0.495 0.99 1 2 C-0.42097452 4.74223154 -1.90891237 7.35744616 -3.5 10 C-4.52663241 11.73793242 -5.55264076 13.47623359 -6.578125 15.21484375 C-7.13306641 16.15054199 -7.68800781 17.08624023 -8.25976562 18.05029297 C-11.29664812 23.19782584 -14.26909108 28.38242581 -17.25 33.5625 C-18.52205176 35.76567331 -19.79418842 37.96879759 -21.06640625 40.171875 C-23.42362621 44.25811728 -25.7732677 48.34850641 -28.11245728 52.44508362 C-29.14037465 54.24467055 -30.17001782 56.04325881 -31.20019531 57.84155273 C-32.49597536 60.10471059 -33.78845532 62.36976209 -35.07714844 64.63696289 C-35.95741699 66.17211548 -35.95741699 66.17211548 -36.85546875 67.73828125 C-37.36746826 68.63587158 -37.87946777 69.53346191 -38.40698242 70.45825195 C-40.09234808 73.14734649 -41.97363079 75.56051152 -44 78 C-44.1255612 73.82325487 -44.2152361 69.64756899 -44.2746582 65.46948242 C-44.29948116 64.05457378 -44.33335255 62.63978879 -44.37719727 61.2253418 C-44.90351048 43.78270275 -38.63639165 29.97312 -27 17 C-24.16015625 14.7265625 -24.16015625 14.7265625 -21.0625 12.625 C-20.51053955 12.24996338 -19.9585791 11.87492676 -19.38989258 11.48852539 C-13.13431491 7.30615473 -6.58905655 3.6254629 0 0 Z " fill="#FAF8F7" transform="translate(86,112)"/>
<path d="M0 0 C0.495 0.99 0.495 0.99 1 2 C-0.06738136 4.23511482 -1.18132514 6.31090699 -2.4375 8.4375 C-2.98784912 9.37758911 -2.98784912 9.37758911 -3.54931641 10.33666992 C-13.2095374 26.58640891 -24.38017733 38.54165097 -43 44 C-49.75351292 45.38199299 -56.57666006 45.11115844 -63.4375 45.0625 C-64.64599609 45.05798828 -65.85449219 45.05347656 -67.09960938 45.04882812 C-70.06645789 45.03710145 -73.0332027 45.02068896 -76 45 C-73.61582368 42.36686961 -71.08148373 40.74432542 -68.00390625 38.98828125 C-66.98433838 38.40336914 -65.96477051 37.81845703 -64.91430664 37.21582031 C-63.25516235 36.27367676 -63.25516235 36.27367676 -61.5625 35.3125 C-60.40136255 34.64854686 -59.24047841 33.98415055 -58.07983398 33.31933594 C-55.01200426 31.56357891 -51.94095558 29.81353121 -48.86914062 28.0647583 C-45.81723084 26.32623407 -42.76801945 24.58299352 -39.71875 22.83984375 C-36.1584875 20.80481812 -32.59808505 18.77004361 -29.03637695 16.73754883 C-19.33395948 11.19889409 -9.65873128 5.61443493 0 0 Z " fill="#FAF9F8" transform="translate(395,422)"/>
<path d="M0 0 C19.24646936 6.91965401 33.9388212 20.18472299 42.671875 38.5078125 C47.4781651 51.22558014 46.47784309 64.60274998 46 78 C43.34434213 75.60030318 41.72001447 73.03555811 39.953125 69.93359375 C39.36321777 68.90395508 38.77331055 67.87431641 38.16552734 66.81347656 C37.21734131 65.14236816 37.21734131 65.14236816 36.25 63.4375 C35.58206323 62.26890821 34.91359726 61.10061875 34.24462891 59.93261719 C32.85333475 57.50235107 31.46433347 55.07079744 30.07714844 52.63818359 C26.85991299 46.99911708 23.61808482 41.37422863 20.375 35.75 C19.76293701 34.68716797 19.15087402 33.62433594 18.52026367 32.52929688 C13.70067764 24.17492247 8.80674293 15.86595807 3.85888672 7.58691406 C3.34986816 6.73194336 2.84084961 5.87697266 2.31640625 4.99609375 C1.86724854 4.24513428 1.41809082 3.4941748 0.95532227 2.72045898 C0 1 0 1 0 0 Z " fill="#FAF9F8" transform="translate(413,112)"/>
<path d="M0 0 C29.58731176 -0.82655002 29.58731176 -0.82655002 40 4 C40.86882812 4.36222656 41.73765625 4.72445312 42.6328125 5.09765625 C56.71462008 11.44954193 65.55936941 22.40128963 73.0625 35.5 C73.46927979 36.20705078 73.87605957 36.91410156 74.29516602 37.64257812 C75.26422681 39.3927015 76.14098196 41.19331832 77 43 C76.505 43.99 76.505 43.99 76 45 C62.51416532 37.51054538 49.08924772 29.940692 35.78369141 22.13476562 C28.15050937 17.65879007 20.47806997 13.25588884 12.77246094 8.90576172 C8.39786741 6.42390315 4.09352209 3.92772939 0 1 C0 0.67 0 0.34 0 0 Z " fill="#FAF9F7" transform="translate(319,50)"/>
<path d="M0 0 C0.33 0 0.66 0 1 0 C1.53719965 21.13811745 1.1316816 40.51352085 -13.3125 57.4375 C-17.77549189 62.0430076 -22.57234611 65.61320249 -28 69 C-28.61842773 69.39171387 -29.23685547 69.78342773 -29.87402344 70.18701172 C-31.90823493 71.47102799 -33.95166912 72.73864399 -36 74 C-36.6595166 74.41064697 -37.3190332 74.82129395 -37.99853516 75.24438477 C-39.62891096 76.22672543 -41.31122799 77.12183855 -43 78 C-43.66 77.67 -44.32 77.34 -45 77 C-37.38160142 63.71583151 -29.71286563 50.46854222 -21.875 37.3125 C-16.07745401 27.58098084 -10.42046354 17.78101472 -4.89599609 7.8918457 C-4.39535645 6.9968335 -3.8947168 6.10182129 -3.37890625 5.1796875 C-2.9413501 4.39319824 -2.50379395 3.60670898 -2.05297852 2.79638672 C-1 1 -1 1 0 0 Z " fill="#FAF9F7" transform="translate(458,327)"/>
<path d="M0 0 C2.98885268 2.77737346 5.01050908 5.43928991 6.9609375 9.015625 C7.50758057 10.00715576 8.05422363 10.99868652 8.61743164 12.02026367 C9.48742798 13.61898315 9.48742798 13.61898315 10.375 15.25 C11.62974017 17.52311348 12.88629761 19.79522465 14.14453125 22.06640625 C14.46455612 22.64509964 14.78458099 23.22379303 15.11430359 23.82002258 C18.34884867 29.65711964 21.69145047 35.42846572 25.0625 41.1875 C25.63162109 42.16122559 26.20074219 43.13495117 26.78710938 44.13818359 C29.76008349 49.21294604 32.7554413 54.27377073 35.76953125 59.32421875 C36.67723267 60.84849487 36.67723267 60.84849487 37.60327148 62.40356445 C38.76143303 64.34596272 39.92354421 66.28601286 41.09008789 68.22338867 C41.86147095 69.51660034 41.86147095 69.51660034 42.6484375 70.8359375 C43.10395996 71.59438965 43.55948242 72.3528418 44.02880859 73.13427734 C45 75 45 75 45 77 C26.67338478 70.45736222 13.5037732 58.32805712 4.09765625 41.62109375 C-1.91267456 28.51150162 -0.55740477 14.09805284 0 0 Z " fill="#FAF9F8" transform="translate(42,328)"/>
<path d="M0 0 C3.63260345 1.36472823 6.90961407 2.9980116 10.26171875 4.94921875 C11.28499268 5.5424292 12.3082666 6.13563965 13.36254883 6.74682617 C14.45978271 7.38724854 15.5570166 8.0276709 16.6875 8.6875 C17.84573909 9.36014049 19.00419017 10.03241608 20.1628418 10.7043457 C22.57261663 12.10223959 24.98147036 13.50170099 27.38964844 14.90234375 C33.02294111 18.17731172 38.66792045 21.43203731 44.3125 24.6875 C45.37734619 25.30206055 46.44219238 25.91662109 47.53930664 26.54980469 C57.67554262 32.39688749 67.83347608 38.2057694 78 44 C78 44.33 78 44.66 78 45 C43.77475692 46.24968119 43.77475692 46.24968119 32 39 C31.05769531 38.42378906 30.11539063 37.84757812 29.14453125 37.25390625 C26.64875094 35.59865461 24.32289106 33.88928473 22 32 C21.18039795 31.36529785 21.18039795 31.36529785 20.34423828 30.71777344 C15.81255464 27.07232385 12.82482031 23.23520827 9.875 18.25 C9.44977051 17.55132812 9.02454102 16.85265625 8.58642578 16.1328125 C5.43621203 10.89734802 2.53970845 5.56062482 0 0 Z " fill="#FAF9F8" transform="translate(104,422)"/>
<path d="M0 0 C0.33 0 0.66 0 1 0 C1 29.37 1 58.74 1 89 C-2.44297396 85.55702604 -4.55875444 81.98774791 -7 77.8125 C-7.65742188 76.71711914 -7.65742188 76.71711914 -8.328125 75.59960938 C-16.93041662 60.97312257 -18.44013426 43.80091825 -15.26953125 27.16796875 C-11.90056725 17.69351764 -5.88725358 8.15486504 0 0 Z " fill="#FCFCFB" transform="translate(35,214)"/>
<path d="M0 0 C1.35154746 0.01508568 2.70311135 0.02876717 4.0546875 0.04101562 C7.32855371 0.07609276 10.6015568 0.12524903 13.875 0.1875 C10.46666354 3.0330204 7.04033016 5.36961602 3.17578125 7.55078125 C2.06178955 8.18290527 0.94779785 8.8150293 -0.19995117 9.46630859 C-1.08244034 9.96309113 -1.08244034 9.96309113 -1.98275757 10.46990967 C-4.48405795 11.87806706 -6.97980255 13.29594642 -9.47602844 14.71307373 C-10.76861636 15.44669726 -12.06149633 16.17980644 -13.35466003 16.91241455 C-19.85873379 20.59778947 -26.33795852 24.32546793 -32.8125 28.0625 C-33.88137451 28.67778564 -34.95024902 29.29307129 -36.05151367 29.92700195 C-40.87600071 32.70913653 -45.68563889 35.5104325 -50.45703125 38.3828125 C-51.25471924 38.86121582 -52.05240723 39.33961914 -52.87426758 39.83251953 C-54.33030442 40.7090793 -55.78227945 41.59243722 -57.22924805 42.48388672 C-58.82644239 43.4452887 -60.47159528 44.32635171 -62.125 45.1875 C-62.785 44.8575 -63.445 44.5275 -64.125 44.1875 C-53.49877598 24.75446739 -42.49409188 9.19600375 -20.75390625 1.55859375 C-13.91058631 -0.44237699 -7.06973797 -0.13676576 0 0 Z " fill="#FAF9F8" transform="translate(168.125,49.8125)"/>
<path d="M0 0 C29.7 0 59.4 0 90 0 C87.41647417 2.58352583 85.63050376 3.92049809 82.5078125 5.62890625 C81.63769531 6.10650391 80.76757812 6.58410156 79.87109375 7.07617188 C78.96488281 7.56666016 78.05867188 8.05714844 77.125 8.5625 C76.22652344 9.05685547 75.32804687 9.55121094 74.40234375 10.06054688 C64.28217199 15.58403796 56.24616825 17.19081767 44.75 17.25 C43.27080078 17.2809375 43.27080078 17.2809375 41.76171875 17.3125 C29.67256057 17.37621098 21.17891091 13.3624426 10.875 7.3125 C9.823125 6.70599609 8.77125 6.09949219 7.6875 5.47460938 C5.11952353 3.9921866 2.55738256 2.50059969 0 1 C0 0.67 0 0.34 0 0 Z " fill="#FCFBFA" transform="translate(205,473)"/>
<path d="M0 0 C0.80759766 -0.01224609 1.61519531 -0.02449219 2.44726562 -0.03710938 C18.29785621 -0.07542668 31.56150877 7.90728633 44.5625 16.1875 C44.5625 16.5175 44.5625 16.8475 44.5625 17.1875 C15.1925 17.1875 -14.1775 17.1875 -44.4375 17.1875 C-41.98167219 14.73167219 -40.3850196 13.43573194 -37.453125 11.8125 C-36.68226563 11.38453125 -35.91140625 10.9565625 -35.1171875 10.515625 C-34.31539062 10.07734375 -33.51359375 9.6390625 -32.6875 9.1875 C-31.90117187 8.74921875 -31.11484375 8.3109375 -30.3046875 7.859375 C-20.13911707 2.25311357 -11.65632721 0.0092584 0 0 Z " fill="#FCFBFA" transform="translate(250.4375,26.8125)"/>
<path d="M0 0 C10.23 0 20.46 0 31 0 C31 14.19 31 28.38 31 43 C18.72350622 38.90783541 14.00224108 34.04240046 8 23 C6.16133735 19.0592987 4.54506634 15.06358106 3 11 C2.67902344 10.19820313 2.35804688 9.39640625 2.02734375 8.5703125 C0.84633845 5.57110835 0 3.2519941 0 0 Z " fill="#FCFCFB" transform="translate(215,294)"/>
<path d="M0 0 C0 13.86 0 27.72 0 42 C-10.23 42 -20.46 42 -31 42 C-28.86441964 29.18651784 -23.59913491 15.99918898 -14 7 C-13.154375 6.113125 -12.30875 5.22625 -11.4375 4.3125 C-7.34046562 0.42556994 -5.79741682 0 0 0 Z " fill="#FCFBFA" transform="translate(246,165)"/>
<path d="M0 0 C10.23 0 20.46 0 31 0 C27.48894528 14.0442189 27.48894528 14.0442189 24.3125 20.125 C23.96582275 20.79950195 23.61914551 21.47400391 23.26196289 22.16894531 C18.87033159 30.45489258 13.92414309 38.29563872 5 42 C3.35 42 1.7 42 0 42 C0 28.14 0 14.28 0 0 Z " fill="#FCFCFB" transform="translate(249,294)"/>
<path d="M0 0 C9.11202304 1.30171758 12.66783264 3.96436919 18.0625 11 C23.92225112 19.42623126 31 31.3910156 31 42 C20.77 42 10.54 42 0 42 C0 28.14 0 14.28 0 0 Z " fill="#FCFCFB" transform="translate(249,165)"/>
<path d="M0 0 C0.66 0.66 1.32 1.32 2 2 C1.52942333 6.11754583 0.13823156 10.01618954 -1 14 C9.23 14 19.46 14 30 14 C30 14.33 30 14.66 30 15 C19.44 15 8.88 15 -2 15 C-2.33 17.64 -2.66 20.28 -3 23 C-3.165 24.13179687 -3.33 25.26359375 -3.5 26.4296875 C-4.93217429 36.29826346 -5.53670039 46.03905844 -6 56 C5.88 56 17.76 56 30 56 C30 56.33 30 56.66 30 57 C18.12 57 6.24 57 -6 57 C-5.57622322 68.35721779 -4.69380475 79.17357731 -2.62109375 90.33984375 C-2 94 -2 94 -2 98 C8.89 98 19.78 98 31 98 C31 84.8 31 71.6 31 58 C31.33 58 31.66 58 32 58 C32 71.2 32 84.4 32 98 C40.105625 97.8453125 40.105625 97.8453125 48.375 97.6875 C50.07962402 97.66260498 51.78424805 97.63770996 53.54052734 97.61206055 C54.88902584 97.57978056 56.23749883 97.54640825 57.5859375 97.51171875 C58.28823486 97.50547485 58.99053223 97.49923096 59.71411133 97.49279785 C61.9554352 97.46062232 61.9554352 97.46062232 65 97 C65.99 95.515 65.99 95.515 67 94 C67 95.32 67 96.64 67 98 C80.2 98 93.4 98 107 98 C106.67 98.66 106.34 99.32 106 100 C92.8 100 79.6 100 66 100 C65.505 101.98 65.505 101.98 65 104 C64.67 103.01 64.34 102.02 64 101 C53.44 100.67 42.88 100.34 32 100 C32 114.19 32 128.38 32 143 C33.32 143.33 34.64 143.66 36 144 C36 144.33 36 144.66 36 145 C22.74732492 145.50754926 10.34814711 144.29206305 -2 139 C1 137 1 137 4.46875 137.6796875 C5.81629896 138.06508119 7.16001695 138.46407186 8.5 138.875 C13.65630692 140.46049656 13.65630692 140.46049656 19 141 C17.7315625 140.071875 17.7315625 140.071875 16.4375 139.125 C-0.62754545 124.66377604 -5.36496757 97.81675621 -8 77 C-8 70.4 -8 63.8 -8 57 C-23.51 57 -39.02 57 -55 57 C-55 56.67 -55 56.34 -55 56 C-39.49 56 -23.98 56 -8 56 C-8 49.73 -8 43.46 -8 37 C-7.62091958 33.39515975 -7.22889547 30.02724673 -6.5625 26.5 C-6.42779297 25.70464844 -6.29308594 24.90929687 -6.15429688 24.08984375 C-5.61328564 20.97045216 -5.00233789 18.00701366 -4 15 C-16.87 15 -29.74 15 -43 15 C-43 14.67 -43 14.34 -43 14 C-30.13 13.67 -17.26 13.34 -4 13 C-2.68 8.71 -1.36 4.42 0 0 Z M-1 100 C1.74321234 113.71606172 8.03045496 130.73330939 19.7578125 139.28125 C23.24453015 141.39441221 25.93634099 142.1872682 30 143 C30 128.81 30 114.62 30 100 C19.77 100 9.54 100 -1 100 Z " fill="#745749" transform="translate(216,194)"/>
<path d="M0 0 C3.73259366 0.59215835 6.60825454 1.6650581 9.9375 3.4375 C15.9873844 6.64940376 21.02522945 8.2564139 27.9296875 8.1953125 C29.21875 8.18886719 30.5078125 8.18242187 31.8359375 8.17578125 C33.18229442 8.15907463 34.52864859 8.14214479 35.875 8.125 C37.24478517 8.11495664 38.61457742 8.10583317 39.984375 8.09765625 C43.32309756 8.07414412 46.66145761 8.0412793 50 8 C48.02 6.68 46.04 5.36 44 4 C47.75 2 47.75 2 50 2 C50.66 2.66 51.32 3.32 52 4 C52.66 3.67 53.32 3.34 54 3 C55.76346493 3.97291088 55.76346493 3.97291088 57.91282654 5.39628601 C63.43076298 8.57260217 68.13356266 8.7121508 74.39477539 8.65942383 C76.04997696 8.67514938 76.04997696 8.67514938 77.73861694 8.69119263 C81.35858706 8.7198205 84.97759377 8.713665 88.59765625 8.70703125 C91.11829317 8.7201536 93.63891958 8.73545946 96.15953064 8.75285339 C102.09853062 8.78859247 108.03732165 8.80243436 113.97640461 8.8054778 C120.74322041 8.8101815 127.50980872 8.84314657 134.27652371 8.87837565 C148.18432132 8.95015542 162.09203214 8.98680207 176 9 C177 13.75 177 13.75 177 16 C174.20227505 17.67193817 171.38472972 19.30732318 168.5625 20.9375 C167.77939453 21.40607422 166.99628906 21.87464844 166.18945312 22.35742188 C160.6655878 25.51716377 156.36446568 26.70057068 150 27 C150.33 25.68 150.66 24.36 151 23 C155.29 20.69 159.58 18.38 164 16 C134.63 15.67 105.26 15.34 75 15 C75 14.67 75 14.34 75 14 C103.05 14 131.1 14 160 14 C159.67 13.01 159.34 12.02 159 11 C147.07383939 10.90737656 135.14776414 10.83627377 123.22131729 10.79275131 C117.68354857 10.77186414 112.14602567 10.74352557 106.60839844 10.69824219 C101.26565887 10.6548252 95.92315595 10.63087141 90.5802536 10.62049103 C88.5404462 10.61309223 86.50065196 10.59864432 84.46094513 10.57707977 C81.60681527 10.54810113 78.75366703 10.5440417 75.89941406 10.54589844 C75.05352722 10.53151733 74.20764038 10.51713623 73.33612061 10.50231934 C68.58501101 10.47077353 68.58501101 10.47077353 64.6905365 12.99404907 C64.13265945 13.65601288 63.57478241 14.31797668 63 15 C59.95692178 15.4234077 57.2832902 15.60830794 54.23828125 15.6015625 C53.37422165 15.61013275 52.51016205 15.618703 51.61991882 15.62753296 C49.78497813 15.63901867 47.94994638 15.64002053 46.11499023 15.63134766 C43.36598845 15.62512115 40.62150074 15.6715891 37.87304688 15.72265625 C24.72518992 15.81748575 10.04708742 14.52839966 0 5 C-0.33 4.01 -0.66 3.02 -1 2 C-0.67 1.34 -0.34 0.68 0 0 Z " fill="#7B5A4D" transform="translate(130,458)"/>
<path d="M0 0 C2.97 0 5.94 0 9 0 C8.01 0.33 7.02 0.66 6 1 C6 14.86 6 28.72 6 43 C16.23 43 26.46 43 37 43 C37 43.33 37 43.66 37 44 C26.77 44 16.54 44 6 44 C6 57.53 6 71.06 6 85 C17.88 85 29.76 85 42 85 C41.26423762 75.63521606 41.26423762 75.63521606 40.50341797 66.27246094 C40.41721191 65.10489258 40.33100586 63.93732422 40.2421875 62.734375 C40.1479248 61.54038086 40.05366211 60.34638672 39.95654297 59.11621094 C39.99934807 56.04674873 40.36328504 54.54600106 42 52 C44.08011502 63.06701973 44.42991402 73.59828039 45 85 C59.85 85 74.7 85 90 85 C90 82.03 90 79.06 90 76 C90.33 76 90.66 76 91 76 C91 82.93 91 89.86 91 97 C90.67 97 90.34 97 90 97 C90 94.03 90 91.06 90 88 C75.15 88 60.3 88 45 88 C45 91.3 45 94.6 45 98 C44.69534339 101.98007308 44.15787051 105.91946125 43.625 109.875 C43.43550781 111.40253906 43.43550781 111.40253906 43.2421875 112.9609375 C43.04882812 114.43046875 43.04882812 114.43046875 42.8515625 115.9296875 C42.73635254 116.80866699 42.62114258 117.68764648 42.50244141 118.59326172 C41.75092685 122.19308217 40.59729452 124.40270548 38 127 C38.144375 126.03320312 38.28875 125.06640625 38.4375 124.0703125 C39.06339369 119.68244509 39.53905167 115.28281836 40 110.875 C40.0825 110.10929687 40.165 109.34359375 40.25 108.5546875 C40.97092651 101.7058857 41.47114511 94.87511363 42 88 C30.12 88 18.24 88 6 88 C6 101.2 6 114.4 6 128 C5.01 128 4.02 128 3 128 C3 114.8 3 101.6 3 88 C-8.88 88 -20.76 88 -33 88 C-33 87.01 -33 86.02 -33 85 C-21.12 85 -9.24 85 3 85 C3 71.47 3 57.94 3 44 C-7.23 44 -17.46 44 -28 44 C-28 43.67 -28 43.34 -28 43 C-17.77 43 -7.54 43 3 43 C3 29.14 3 15.28 3 1 C2.01 0.67 1.02 0.34 0 0 Z " fill="#998379" transform="translate(243,164)"/>
<path d="M0 0 C0.33 0 0.66 0 1 0 C1 5.61 1 11.22 1 17 C15.85 17 30.7 17 46 17 C46 14.36 46 11.72 46 9 C46.33 9 46.66 9 47 9 C47 15.27 47 21.54 47 28 C46.67 28 46.34 28 46 28 C46 25.36 46 22.72 46 20 C31.15 20 16.3 20 1 20 C2.65270052 34.8743047 4.49536967 45.99073934 11 59 C30.8 59.495 30.8 59.495 51 60 C51 60.66 51 61.32 51 62 C32.19 62.495 32.19 62.495 13 63 C18.14707017 70.30157638 18.14707017 70.30157638 24 77 C24 77.66 24 78.32 24 79 C24.66 79 25.32 79 26 79 C27.68933922 80.6436814 29.35259924 82.3142876 31 84 C38.29949943 90.1032604 46.4103809 94.94829288 55 99 C52.15732535 100.18900334 51.10394693 100.04129003 48.1875 98.8828125 C37.08820938 92.76188017 26.84237942 86.12151485 19 76 C18.28199219 75.12859375 17.56398437 74.2571875 16.82421875 73.359375 C3.1229804 56.13496108 -3.35455522 35.01152232 -2 13 C-1.46698686 8.63940111 -0.79200947 4.32069451 0 0 Z " fill="#876C62" transform="translate(161,232)"/>
<path d="M0 0 C-1.56637596 3.66055252 -3.84818138 6.1794673 -6.5 9.125 C-26.38667459 32.31639344 -32.11015967 61.44970803 -29.82568359 91.27587891 C-27.58834373 112.1659857 -16.46942651 135.16907904 -1.26953125 149.6484375 C0 151 0 151 0 153 C-10.58837904 148.50291317 -16.73580903 135.65230135 -22 126 C-22.56847656 124.97261719 -23.13695312 123.94523437 -23.72265625 122.88671875 C-35.24834747 100.15958848 -37.51335399 69.25256526 -29.69580078 44.93603516 C-24.39189745 30.05908553 -16.66126642 15.70138998 -6 4 C-13.01524148 4.55789568 -20.00982196 5.18447923 -27 6 C-27 5.34 -27 4.68 -27 4 C-23.8148163 3.32193683 -20.62654387 2.65964849 -17.4375 2 C-16.09461914 1.71382812 -16.09461914 1.71382812 -14.72460938 1.421875 C-9.70738579 0.39270093 -5.12100455 -0.22479032 0 0 Z " fill="#7F6358" transform="translate(173,174)"/>
<path d="M0 0 C0.33 0 0.66 0 1 0 C0.47895927 5.95188835 -0.78831158 10.82828093 -3.125 16.3125 C-3.43775879 17.0545166 -3.75051758 17.7965332 -4.07275391 18.56103516 C-15.09733545 43.99770124 -36.59401351 63.49871028 -62 74 C-75.64557886 79.10820467 -87.80847518 81.17951397 -102.375 81.1875 C-103.54289062 81.19974609 -104.71078125 81.21199219 -105.9140625 81.22460938 C-112.85726137 81.23628516 -119.26032391 80.69984686 -126 79 C-125.31292969 79.88042969 -124.62585938 80.76085937 -123.91796875 81.66796875 C-123.00766946 82.84103485 -122.0975212 84.01421815 -121.1875 85.1875 C-120.73568359 85.76564453 -120.28386719 86.34378906 -119.81835938 86.93945312 C-117.30818834 90.18252081 -115.02756611 93.42313088 -113 97 C-113.99 97 -114.98 97 -116 97 C-117.93933938 94.81195145 -119.69434466 92.64837483 -121.4375 90.3125 C-122.39444481 89.05852778 -123.35147463 87.80462043 -124.30859375 86.55078125 C-124.76347168 85.94572754 -125.21834961 85.34067383 -125.68701172 84.71728516 C-126.86922797 83.1710395 -128.10546194 81.66645606 -129.34765625 80.16796875 C-131 78 -131 78 -131 76 C-129.4375 76.22786458 -127.875 76.45572917 -126.3125 76.68359375 C-125.549375 76.78800781 -124.78625 76.89242187 -124 77 C-122.86691406 77.17144531 -121.73382813 77.34289062 -120.56640625 77.51953125 C-105.40649402 79.38517795 -88.70584367 79.3385056 -74 75 C-73.08347656 74.73316406 -72.16695313 74.46632813 -71.22265625 74.19140625 C-43.7535839 65.11572155 -21.67591239 46.69639196 -8.625 20.875 C-5.79866331 15.12433954 -3.53601867 9.30610704 -1.69140625 3.16015625 C-1 1 -1 1 0 0 Z " fill="#785A4F" transform="translate(350,277)"/>
<path d="M0 0 C36.96 0 73.92 0 112 0 C113 5 113 5 113 7 C110.20227505 8.67193817 107.38472972 10.30732318 104.5625 11.9375 C103.77939453 12.40607422 102.99628906 12.87464844 102.18945312 13.35742188 C96.6655878 16.51716377 92.36446568 17.70057068 86 18 C86.33 16.68 86.66 15.36 87 14 C91.29 11.69 95.58 9.38 100 7 C70.63 6.67 41.26 6.34 11 6 C11 5.67 11 5.34 11 5 C39.05 5 67.1 5 96 5 C95.505 3.515 95.505 3.515 95 2 C63.65 1.67 32.3 1.34 0 1 C0 0.67 0 0.34 0 0 Z " fill="#846558" transform="translate(194,467)"/>
<path d="M0 0 C1.69189453 0.73669922 1.69189453 0.73669922 3.41796875 1.48828125 C29.19680251 13.47644035 47.82006569 36.142964 57.72265625 62.4765625 C58.14417969 63.63929688 58.56570313 64.80203125 59 66 C59.19634033 65.42967041 59.39268066 64.85934082 59.5949707 64.27172852 C60.48873152 61.69760281 61.40033027 59.13015683 62.3125 56.5625 C62.62123047 55.66466797 62.92996094 54.76683594 63.24804688 53.84179688 C63.55419922 52.98779297 63.86035156 52.13378906 64.17578125 51.25390625 C64.45333252 50.46314697 64.73088379 49.6723877 65.0168457 48.85766602 C66 47 66 47 69 46 C68.04632063 51.3904137 66.09371103 56.18815022 64.0625 61.25 C63.70220703 62.17296875 63.34191406 63.0959375 62.97070312 64.046875 C62.44573242 65.36171875 62.44573242 65.36171875 61.91015625 66.703125 C61.59183838 67.50395508 61.27352051 68.30478516 60.94555664 69.12988281 C60 71 60 71 58 72 C57.34644531 70.24236328 57.34644531 70.24236328 56.6796875 68.44921875 C45.69759428 39.30443289 27.93838415 16.36930291 -0.5625 2.6875 C-15.25948774 -3.75917385 -29.39766202 -6.35027618 -45.375 -6.25 C-46.59960938 -6.25773438 -47.82421875 -6.26546875 -49.0859375 -6.2734375 C-57.22864547 -6.256186 -64.99343086 -5.47343695 -73 -4 C-73 -4.66 -73 -5.32 -73 -6 C-49.34821803 -13.46898378 -22.34165301 -9.93271497 0 0 Z " fill="#75564A" transform="translate(292,152)"/>
<path d="M0 0 C0 0.99 0 1.98 0 3 C-0.99 3 -1.98 3 -3 3 C-3.33 3.99 -3.66 4.98 -4 6 C-1.64305461 7.1784727 -0.21241172 7.13725868 2.41653442 7.15821838 C3.80899384 7.17290161 3.80899384 7.17290161 5.22958374 7.18788147 C6.25097443 7.19363693 7.27236511 7.1993924 8.32470703 7.20532227 C9.39789185 7.21522186 10.47107666 7.22512146 11.57678223 7.23532104 C15.13710293 7.26700158 18.69743699 7.29171938 22.2578125 7.31640625 C24.72118484 7.33697012 27.1845536 7.35796643 29.6479187 7.37937927 C36.14163321 7.43465853 42.63537988 7.48404196 49.12915039 7.53222656 C55.75149406 7.5823989 62.37379086 7.63810721 68.99609375 7.69335938 C81.99735555 7.80101253 94.99865733 7.90262943 108 8 C108 8.33 108 8.66 108 9 C107.42223722 9.00238835 106.84447443 9.00477671 106.24920368 9.00723743 C92.18566738 9.06639443 78.12229894 9.14194889 64.05894947 9.23571491 C57.25798404 9.28066498 50.45707087 9.32008137 43.65600586 9.34643555 C37.09420463 9.37187815 30.5326179 9.4127882 23.97095299 9.46318626 C21.4659279 9.47988788 18.96086257 9.49138157 16.45578957 9.49761391 C12.95050224 9.50721888 9.44581426 9.53523626 5.94067383 9.56762695 C4.90201675 9.56619186 3.86335968 9.56475677 2.79322815 9.5632782 C-2.35671574 9.63070285 -5.75089869 9.77580788 -10 13 C-10.66 13 -11.32 13 -12 13 C-12.66 12.34 -13.32 11.68 -14 11 C-16.85506049 10.04831317 -18.90937282 9.8099054 -21.88671875 9.68359375 C-22.82451172 9.64169922 -23.76230469 9.59980469 -24.72851562 9.55664062 C-25.70498047 9.51732422 -26.68144531 9.47800781 -27.6875 9.4375 C-28.67556641 9.39431641 -29.66363281 9.35113281 -30.68164062 9.30664062 C-33.12095546 9.20058346 -35.56037113 9.09852286 -38 9 C-37.34 7.68 -36.68 6.36 -36 5 C-37.32 4.34 -38.64 3.68 -40 3 C-38.93040039 2.98018066 -37.86080078 2.96036133 -36.75878906 2.93994141 C-32.78524488 2.8637902 -28.81206234 2.77508758 -24.83886719 2.68261719 C-23.12018989 2.64436673 -21.40143362 2.60950697 -19.68261719 2.578125 C-17.2099996 2.53238872 -14.73792387 2.47440916 -12.265625 2.4140625 C-11.49881409 2.40251129 -10.73200317 2.39096008 -9.94195557 2.37905884 C-6.16811648 2.27497731 -3.20636084 2.10555954 0 0 Z " fill="#806357" transform="translate(198,41)"/>
<path d="M0 0 C0.66 0.66 1.32 1.32 2 2 C1.52942333 6.11754583 0.13823156 10.01618954 -1 14 C9.23 14 19.46 14 30 14 C30 14.33 30 14.66 30 15 C19.44 15 8.88 15 -2 15 C-2.33 17.64 -2.66 20.28 -3 23 C-3.165 24.13179687 -3.33 25.26359375 -3.5 26.4296875 C-4.93217429 36.29826346 -5.53670039 46.03905844 -6 56 C5.88 56 17.76 56 30 56 C30 56.33 30 56.66 30 57 C18.12 57.33 6.24 57.66 -6 58 C-6.33 61.96 -6.66 65.92 -7 70 C-7.33 70 -7.66 70 -8 70 C-8 65.71 -8 61.42 -8 57 C-23.51 57 -39.02 57 -55 57 C-55 56.67 -55 56.34 -55 56 C-39.49 56 -23.98 56 -8 56 C-8 49.73 -8 43.46 -8 37 C-7.62091958 33.39515975 -7.22889547 30.02724673 -6.5625 26.5 C-6.42779297 25.70464844 -6.29308594 24.90929687 -6.15429688 24.08984375 C-5.61328564 20.97045216 -5.00233789 18.00701366 -4 15 C-16.87 15 -29.74 15 -43 15 C-43 14.67 -43 14.34 -43 14 C-30.13 13.67 -17.26 13.34 -4 13 C-2.68 8.71 -1.36 4.42 0 0 Z " fill="#6E4E40" transform="translate(216,194)"/>
<path d="M0 0 C2.97 0 5.94 0 9 0 C8.01 0.33 7.02 0.66 6 1 C6 14.86 6 28.72 6 43 C16.23 43 26.46 43 37 43 C37 43.33 37 43.66 37 44 C26.77 44 16.54 44 6 44 C6 57.53 6 71.06 6 85 C2.77396455 86.61301773 -0.74710038 86.12053599 -4.2890625 86.09765625 C-5.51669815 86.09553383 -5.51669815 86.09553383 -6.76913452 86.09336853 C-9.38779325 86.0877629 -12.00636704 86.07520948 -14.625 86.0625 C-16.39843627 86.05748572 -18.17187387 86.05292269 -19.9453125 86.04882812 C-24.29690782 86.03779164 -28.6484395 86.02052325 -33 86 C-33 85.67 -33 85.34 -33 85 C-21.12 85 -9.24 85 3 85 C3 71.47 3 57.94 3 44 C-7.23 44 -17.46 44 -28 44 C-28 43.67 -28 43.34 -28 43 C-17.77 43 -7.54 43 3 43 C3 29.14 3 15.28 3 1 C2.01 0.67 1.02 0.34 0 0 Z " fill="#9F8D84" transform="translate(243,164)"/>
<path d="M0 0 C0.33 0 0.66 0 1 0 C1.03738281 1.09054688 1.07476562 2.18109375 1.11328125 3.3046875 C2.08714517 27.07920689 6.07014676 53.05671284 20 73 C20.61488281 73.88945312 20.61488281 73.88945312 21.2421875 74.796875 C24.29227358 78.82378604 27.5838899 80.75179849 32 83 C32.804375 83.4125 33.60875 83.825 34.4375 84.25 C35.2109375 84.62125 35.2109375 84.62125 36 85 C34 87 34 87 31.5234375 87.15234375 C22.12017221 86.51068173 13.83852501 84.07476287 5 81 C8 79 8 79 11.46875 79.6796875 C12.81629896 80.06508119 14.16001695 80.46407186 15.5 80.875 C20.65630692 82.46049656 20.65630692 82.46049656 26 83 C25.154375 82.38125 24.30875 81.7625 23.4375 81.125 C7.31051235 67.45870295 1.44610742 41.55308141 -0.81738281 21.5390625 C-1.33392329 14.35721634 -0.66482871 7.15291616 0 0 Z " fill="#76574C" transform="translate(209,252)"/>
<path d="M0 0 C7.0959413 10.64391194 7.37848839 25.80618335 5.5390625 38.07421875 C5.10696718 40.06874569 4.57005432 42.04043827 4 44 C2.02 43.67 0.04 43.34 -2 43 C-1.83886719 42.04996094 -1.67773438 41.09992188 -1.51171875 40.12109375 C-0.84621241 35.43663587 -0.81604432 30.78707932 -0.8125 26.0625 C-0.80025391 25.20720703 -0.78800781 24.35191406 -0.77539062 23.47070312 C-0.76280426 17.97046025 -1.45189257 13.28069848 -3 8 C-2.34 8 -1.68 8 -1 8 C-0.67 5.36 -0.34 2.72 0 0 Z M2 40 C3 42 3 42 3 42 Z " fill="#7B5A4E" transform="translate(482,232)"/>
<path d="M0 0 C0.33 0 0.66 0 1 0 C1.495 19.8 1.495 19.8 2 40 C13.88 40.33 25.76 40.66 38 41 C38 41.33 38 41.66 38 42 C26.12 42 14.24 42 2 42 C2 55.53 2 69.06 2 83 C1.01 83 0.02 83 -1 83 C-1 69.8 -1 56.6 -1 43 C-12.88 43 -24.76 43 -37 43 C-37 42.67 -37 42.34 -37 42 C-25.12 41.67 -13.24 41.34 -1 41 C-0.67 27.47 -0.34 13.94 0 0 Z " fill="#8C7165" transform="translate(247,209)"/>
<path d="M0 0 C-1.56637596 3.66055252 -3.84818138 6.1794673 -6.5 9.125 C-19.11825854 23.84012982 -25.48969417 41.41586951 -30 60 C-30.33 60 -30.66 60 -31 60 C-31.70214199 40.16448886 -19.80002824 21.13386522 -8 6 C-7.34 5.34 -6.68 4.68 -6 4 C-13.01524148 4.55789568 -20.00982196 5.18447923 -27 6 C-27 5.34 -27 4.68 -27 4 C-23.8148163 3.32193683 -20.62654387 2.65964849 -17.4375 2 C-16.54224609 1.80921875 -15.64699219 1.6184375 -14.72460938 1.421875 C-9.70738579 0.39270093 -5.12100455 -0.22479032 0 0 Z " fill="#78594E" transform="translate(173,174)"/>
<path d="M0 0 C4.25130869 3.82173395 6.67243936 7.61495115 9.125 12.75 C9.47046875 13.45938721 9.8159375 14.16877441 10.171875 14.8996582 C13.36571714 21.56390848 16 27.47026001 16 35 C29.53 35 43.06 35 57 35 C57 35.33 57 35.66 57 36 C43.8 36 30.6 36 17 36 C17.495 37.98 17.495 37.98 18 40 C18.03888349 42.33300933 18.0448635 44.66709801 18 47 C15.68205464 43.13675773 15.71102537 40.97717761 15 36 C4.44 36 -6.12 36 -17 36 C-17 35.67 -17 35.34 -17 35 C-6.77 35 3.46 35 14 35 C10.8291803 24.86884438 7.78277313 15.767917 2.41796875 6.6015625 C1.18147711 4.332958 0.46006018 2.52136876 0 0 Z " fill="#6C4C3E" transform="translate(266,173)"/>
<path d="M0 0 C0.33 0 0.66 0 1 0 C1 13.86 1 27.72 1 42 C13.15526016 37.94824661 17.8368879 32.92835102 23.67578125 21.80859375 C26.47152241 15.93268119 28.77061842 10.14241396 30.359375 3.828125 C31 2 31 2 33 1 C31.63895438 15.05898258 25.03987699 29.83633935 14.34765625 39.36328125 C12 41 12 41 10 41 C10.33 41.99 10.66 42.98 11 44 C4.5 45.25 4.5 45.25 0 43 C0 28.81 0 14.62 0 0 Z " fill="#886E63" transform="translate(248,294)"/>
<path d="M0 0 C0.66 0 1.32 0 2 0 C8.55874866 17.33383575 7.51626897 36.58927606 2 54 C1.67 54 1.34 54 1 54 C1.68942281 45.27335865 2.84053791 36.69596566 4 28 C-11.18 28 -26.36 28 -42 28 C-42 27.67 -42 27.34 -42 27 C-26.82 27 -11.64 27 4 27 C2.86059491 19.02416435 1.74635774 11.73387001 0 4 C0 2.68 0 1.36 0 0 Z " fill="#724F41" transform="translate(330,223)"/>
<path d="M0 0 C1.875 0.29711914 1.875 0.29711914 4 1 C5.52766092 3.47946528 6.78102879 5.81256977 8 8.4375 C8.34740234 9.15873047 8.69480469 9.87996094 9.05273438 10.62304688 C11.60894417 15.98964868 13.92532311 21.42913587 16 27 C16.19634033 26.42967041 16.39268066 25.85934082 16.5949707 25.27172852 C17.48873152 22.69760281 18.40033027 20.13015683 19.3125 17.5625 C19.62123047 16.66466797 19.92996094 15.76683594 20.24804688 14.84179688 C20.55419922 13.98779297 20.86035156 13.13378906 21.17578125 12.25390625 C21.45333252 11.46314697 21.73088379 10.6723877 22.0168457 9.85766602 C23 8 23 8 26 7 C25.04632063 12.3904137 23.09371103 17.18815022 21.0625 22.25 C20.70220703 23.17296875 20.34191406 24.0959375 19.97070312 25.046875 C19.62072266 25.9234375 19.27074219 26.8 18.91015625 27.703125 C18.43267944 28.90437012 18.43267944 28.90437012 17.94555664 30.12988281 C17 32 17 32 15 33 C14.34644531 31.24236328 14.34644531 31.24236328 13.6796875 29.44921875 C10.33568936 20.58162696 6.78461832 12.20643514 2 4 C1.32247892 2.67214933 0.65193471 1.34059813 0 0 Z " fill="#785B4F" transform="translate(335,191)"/>
<path d="M0 0 C0.94488281 0.21785156 1.88976562 0.43570312 2.86328125 0.66015625 C5.79599783 0.93081332 8.73471333 1.07227474 11.67578125 1.22265625 C12.85817383 1.28743164 12.85817383 1.28743164 14.06445312 1.35351562 C15.9972234 1.45893946 17.93023151 1.55998719 19.86328125 1.66015625 C18.87328125 2.32015625 17.88328125 2.98015625 16.86328125 3.66015625 C16.86328125 4.65015625 16.86328125 5.64015625 16.86328125 6.66015625 C9.32790354 7.60367224 3.19480733 7.73742197 -4.13671875 5.66015625 C-4.46671875 4.34015625 -4.79671875 3.02015625 -5.13671875 1.66015625 C-2.13671875 -0.33984375 -2.13671875 -0.33984375 0 0 Z " fill="#7E5E51" transform="translate(235.13671875,488.33984375)"/>
<path d="M0 0 C0.33 0 0.66 0 1 0 C1 4.29 1 8.58 1 13 C13.21 13 25.42 13 38 13 C38 13.33 38 13.66 38 14 C26.12 14.33 14.24 14.66 2 15 C1.67 18.96 1.34 22.92 1 27 C0.67 27 0.34 27 0 27 C0 22.71 0 18.42 0 14 C-15.51 14 -31.02 14 -47 14 C-47 13.67 -47 13.34 -47 13 C-31.49 13 -15.98 13 0 13 C0 8.71 0 4.42 0 0 Z " fill="#633927" transform="translate(208,237)"/>
<path d="M0 0 C0.99 0.33 1.98 0.66 3 1 C2.67 1.33 2.34 1.66 2 2 C14.54 2.33 27.08 2.66 40 3 C40 3.33 40 3.66 40 4 C38.83952148 3.99363525 37.67904297 3.98727051 36.48339844 3.98071289 C32.17411561 3.96627326 27.86616602 3.99760976 23.55712891 4.04272461 C21.69291724 4.05585743 19.82857524 4.05660482 17.96435547 4.04467773 C15.28222189 4.02967379 12.60371154 4.0593259 9.921875 4.09765625 C9.08944275 4.08340103 8.2570105 4.06914581 7.39935303 4.05445862 C5.06729444 4.1126984 3.20423061 4.23177926 1 5 C-1.06580176 7.21914928 -1.79470802 9.12453407 -3 12 C-3.27491272 12.64336807 -3.54982544 13.28673615 -3.83306885 13.94960022 C-6.26297138 19.73894313 -7.56789498 25.90593608 -9 32 C-10.54676742 29.58317591 -11.03285963 28.33629773 -10.75 25.44140625 C-8.41010545 16.45962354 -5.17382452 7.76073677 0 0 Z " fill="#7A5D55" transform="translate(172,204)"/>
<path d="M0 0 C-0.14308594 1.1240625 -0.28617188 2.248125 -0.43359375 3.40625 C-1.02024788 8.09948308 -1.54565687 12.79864178 -2.0625 17.5 C-2.15337891 18.32242188 -2.24425781 19.14484375 -2.33789062 19.9921875 C-2.55910233 21.99473555 -2.779624 23.99735981 -3 26 C-3.33 26 -3.66 26 -4 26 C-4.33 23.03 -4.66 20.06 -5 17 C-6.49743119 18.49743119 -6.33202693 19.98824239 -6.5625 22.0625 C-6.706875 23.361875 -6.85125 24.66125 -7 26 C-7.33 26 -7.66 26 -8 26 C-8.61536064 6.41101965 -8.61536064 6.41101965 -4.61328125 1.19140625 C-3 0 -3 0 0 0 Z " fill="#734F42" transform="translate(21,237)"/>
<path d="M0 0 C0.66 0 1.32 0 2 0 C2.35191406 0.88300781 2.70382813 1.76601563 3.06640625 2.67578125 C8.21000019 15.17887774 14.83892838 27.20654421 24.734375 36.65625 C26 38 26 38 26 40 C13.71269991 34.78134895 5.73208356 17.48962829 0.55859375 5.83203125 C0 4 0 4 0 0 Z " fill="#795C50" transform="translate(147,287)"/>
<path d="M0 0 C0.33 0 0.66 0 1 0 C1 29.37 1 58.74 1 89 C-1.50018412 86.49981588 -1.23513727 85.02142703 -1.24884033 81.61079407 C-1.24164978 80.8605748 -1.23445923 80.11035553 -1.22705078 79.33740234 C-1.22734283 78.54707108 -1.22763489 77.75673981 -1.22793579 76.94245911 C-1.22653962 74.32350786 -1.21096505 71.7048392 -1.1953125 69.0859375 C-1.19158339 67.27275752 -1.18873594 65.45957553 -1.18673706 63.64639282 C-1.17909257 58.86892149 -1.15943712 54.09157133 -1.1373291 49.31414795 C-1.1168882 44.44121948 -1.10773911 39.56827147 -1.09765625 34.6953125 C-1.07619197 25.13015503 -1.04204623 15.56508758 -1 6 C-1.99 6.66 -2.98 7.32 -4 8 C-2.87548273 5.0280615 -1.77706209 2.66559313 0 0 Z " fill="#EBE2DC" transform="translate(35,214)"/>
<path d="M0 0 C29.7 0 59.4 0 90 0 C89.01 0.99 88.02 1.98 87 3 C86.01 2.67 85.02 2.34 84 2 C81.3784437 1.91909112 78.78470919 1.89475761 76.16381836 1.91821289 C74.96829094 1.92281273 74.96829094 1.92281273 73.74861145 1.92750549 C72.01835566 1.93465849 70.28810801 1.94404743 68.55787468 1.95540047 C65.8224776 1.9727665 63.08713871 1.98308164 60.35169983 1.99131775 C52.57449842 2.01579788 44.79737567 2.05144052 37.02026367 2.09594727 C32.26413554 2.1226723 27.50805257 2.13975204 22.75186348 2.15081596 C20.93650197 2.15703944 19.12114948 2.16706167 17.30583 2.18089485 C14.77275675 2.20002959 12.23992269 2.20699543 9.70678711 2.21118164 C8.5745018 2.22432404 8.5745018 2.22432404 7.41934204 2.23773193 C2.22789641 2.22789641 2.22789641 2.22789641 0 0 Z " fill="#F6F2EE" transform="translate(205,473)"/>
<path d="M0 0 C14.19 0 28.38 0 43 0 C49 12 49 12 48 18 C46.21977151 15.32965727 45.10873814 13.02399568 43.9375 10.0625 C43.59589844 9.20785156 43.25429688 8.35320312 42.90234375 7.47265625 C42 5 42 5 41 1 C27.47 1 13.94 1 0 1 C0 0.67 0 0.34 0 0 Z " fill="#795D53" transform="translate(282,207)"/>
<path d="M0 0 C4.05606165 0.46800711 7.46588679 0.87953208 11 3 C9.02 3 7.04 3 5 3 C5.68707031 3.88042969 6.37414062 4.76085937 7.08203125 5.66796875 C7.99233054 6.84103485 8.9024788 8.01421815 9.8125 9.1875 C10.49022461 10.0547168 10.49022461 10.0547168 11.18164062 10.93945312 C13.69181166 14.18252081 15.97243389 17.42313088 18 21 C17.01 21 16.02 21 15 21 C13.06066062 18.81195145 11.30565534 16.64837483 9.5625 14.3125 C8.60555519 13.05852778 7.64852537 11.80462043 6.69140625 10.55078125 C6.00908936 9.64320068 6.00908936 9.64320068 5.31298828 8.71728516 C4.13077203 7.1710395 2.89453806 5.66645606 1.65234375 4.16796875 C0 2 0 2 0 0 Z " fill="#715247" transform="translate(219,353)"/>
<path d="M0 0 C0.33 0 0.66 0 1 0 C2.61974301 10.64046562 1.65623448 21.31424078 1 32 C0.01 32.495 0.01 32.495 -1 33 C-1.02477373 28.94320623 -1.04289493 24.88644194 -1.05493164 20.82958984 C-1.05995118 19.45035027 -1.06676819 18.07111598 -1.07543945 16.69189453 C-1.0876092 14.70607817 -1.09271633 12.72022251 -1.09765625 10.734375 C-1.10289307 9.54038086 -1.10812988 8.34638672 -1.11352539 7.11621094 C-1.01941946 4.53305383 -0.76626155 2.44991581 0 0 Z " fill="#7F6256" transform="translate(141,229)"/>
<path d="M0 0 C0 4.29 0 8.58 0 13 C-0.99 13.33 -1.98 13.66 -3 14 C-4.21869929 16.50447516 -4.21869929 16.50447516 -5 19 C-5.33 19 -5.66 19 -6 19 C-5.94000853 16.39337049 -5.85303451 13.79248111 -5.75 11.1875 C-5.73582031 10.44951172 -5.72164062 9.71152344 -5.70703125 8.95117188 C-5.4587934 3.46511535 -5.4587934 3.46511535 -3.015625 0.98828125 C-1 0 -1 0 0 0 Z " fill="#8C6E61" transform="translate(19,252)"/>
<path d="M0 0 C0.33 0 0.66 0 1 0 C1 14.19 1 28.38 1 43 C2.32 43.33 3.64 43.66 5 44 C5 44.33 5 44.66 5 45 C2.03 45 -0.94 45 -4 45 C-3.67 44.34 -3.34 43.68 -3 43 C-2.01 43 -1.02 43 0 43 C0 28.81 0 14.62 0 0 Z " fill="#643D2C" transform="translate(247,294)"/>
<path d="M0 0 C6.68532283 0.98091644 11.28605858 7.7418509 15.140625 12.8203125 C16.80116779 15.18962356 18.42452658 17.57346698 20 20 C19.01 20 18.02 20 17 20 C15.01953125 17.875 15.01953125 17.875 12.8125 15 C9.2648334 10.49853452 5.57535442 6.4170052 1.43359375 2.4609375 C0 1 0 1 0 0 Z " fill="#705148" transform="translate(317,170)"/>
<path d="M0 0 C7.92 0 15.84 0 24 0 C24 0.33 24 0.66 24 1 C22.86820313 1.03738281 21.73640625 1.07476562 20.5703125 1.11328125 C19.08850795 1.17893082 17.60673861 1.24537851 16.125 1.3125 C15.00544922 1.34633789 15.00544922 1.34633789 13.86328125 1.38085938 C11.900396 1.47811945 9.94671678 1.73042294 8 2 C7.01 3.485 7.01 3.485 6 5 C2.375 5.1875 2.375 5.1875 -1 5 C-1 4.34 -1 3.68 -1 3 C-0.01 3 0.98 3 2 3 C2 2.34 2 1.68 2 1 C1.34 0.67 0.68 0.34 0 0 Z " fill="#754F42" transform="translate(154,45)"/>
<path d="M0 0 C0.33 0 0.66 0 1 0 C2.33333333 6.66666667 3.66666667 13.33333333 5 20 C4.01 20 3.02 20 2 20 C-0.36561846 12.84968433 -1.34274501 7.44613143 0 0 Z " fill="#83685C" transform="translate(161,258)"/>
<path d="M0 0 C0.66 0.33 1.32 0.66 2 1 C1.40832031 1.64066406 0.81664062 2.28132812 0.20703125 2.94140625 C-5.15909183 8.79567773 -5.15909183 8.79567773 -9.9375 15.125 C-10.618125 16.07375 -11.29875 17.0225 -12 18 C-12.66 18 -13.32 18 -14 18 C-12.59787748 13.77089533 -10.58624819 11.12217785 -7.5625 7.875 C-6.78003906 7.02679688 -5.99757812 6.17859375 -5.19140625 5.3046875 C-3.48442037 3.50946171 -1.76559133 1.73720562 0 0 Z " fill="#704F43" transform="translate(187,186)"/>
<path d="M0 0 C0.99 0 1.98 0 3 0 C3.36630156 3.93774177 3.30233203 5.56539771 1 8.875 C0.34 9.57625 -0.32 10.2775 -1 11 C-2.38550197 8.22899606 -2.1877467 6.0665294 -2 3 C-1.34 2.01 -0.68 1.02 0 0 Z " fill="#745042" transform="translate(16,265)"/>
<path d="M0 0 C0.33 0 0.66 0 1 0 C2.36712849 9.4179963 1.66893651 18.5525582 1 28 C0.67 28 0.34 28 0 28 C-0.19697084 25.02119476 -0.38277673 22.04235614 -0.5625 19.0625 C-0.61857422 18.23169922 -0.67464844 17.40089844 -0.73242188 16.54492188 C-1.06275821 10.88515939 -0.76547933 5.61918533 0 0 Z " fill="#806358" transform="translate(209,222)"/>
<path d="M0 0 C0 2.31 0 4.62 0 7 C-1.98 7.66 -3.96 8.32 -6 9 C-6.93423645 5.98968256 -7.04449911 5.13349732 -6 2 C-1.78947368 0 -1.78947368 0 0 0 Z " fill="#7B5A4E" transform="translate(366,460)"/>
<path d="M0 0 C0.33 0.66 0.66 1.32 1 2 C0.01 2.495 0.01 2.495 -1 3 C5.6 3.33 12.2 3.66 19 4 C19 4.33 19 4.66 19 5 C10.42 5 1.84 5 -7 5 C-4.49183541 2.49183541 -3.09162264 1.38589981 0 0 Z " fill="#F4EFEA" transform="translate(326,462)"/>
<path d="M0 0 C0.33 0 0.66 0 1 0 C1.22624982 3.5824379 1.42787181 7.16585101 1.625 10.75 C1.68945312 11.76578125 1.75390625 12.7815625 1.8203125 13.828125 C1.871875 14.8078125 1.9234375 15.7875 1.9765625 16.796875 C2.02893066 17.69760742 2.08129883 18.59833984 2.13525391 19.52636719 C1.98965654 22.18916947 1.35693395 23.73072479 0 26 C-0.84831606 17.17751293 -1.04865737 8.80872193 0 0 Z " fill="#7F6258" transform="translate(209,252)"/>
<path d="M0 0 C0.66 0 1.32 0 2 0 C1.37321829 3.66172475 0.35548154 6.8818995 -1.0625 10.3125 C-1.42472656 11.19550781 -1.78695313 12.07851562 -2.16015625 12.98828125 C-2.43730469 13.65214844 -2.71445312 14.31601563 -3 15 C-3.66 15 -4.32 15 -5 15 C-4.43174347 9.45949887 -2.37113483 4.96284034 0 0 Z " fill="#80655C" transform="translate(359,198)"/>
<path d="M0 0 C4.97642319 3.36640392 8.09059796 7.82106441 11 13 C11 13.66 11 14.32 11 15 C7.42521604 13.55767936 5.88918552 11.83879097 3.8125 8.625 C3.30332031 7.85414063 2.79414063 7.08328125 2.26953125 6.2890625 C1.08492721 4.15313029 0.45206553 2.38559884 0 0 Z " fill="#73564B" transform="translate(313,192)"/>
<path d="M0 0 C3.96 0 7.92 0 12 0 C12 3 12 3 11 5 C7.37 5 3.74 5 0 5 C0 4.67 0 4.34 0 4 C2.31 4 4.62 4 7 4 C7 3.01 7 2.02 7 1 C4.69 1 2.38 1 0 1 C0 0.67 0 0.34 0 0 Z " fill="#714A3E" transform="translate(245,491)"/>
<path d="M0 0 C0.99 0.66 1.98 1.32 3 2 C0.73580804 3.05881632 -1.53435538 4.09702932 -3.8125 5.125 C-4.77639648 5.57939453 -4.77639648 5.57939453 -5.75976562 6.04296875 C-7.64453125 6.8828125 -7.64453125 6.8828125 -11 8 C-11.99 7.34 -12.98 6.68 -14 6 C-11.73580804 4.94118368 -9.46564462 3.90297068 -7.1875 2.875 C-6.54490234 2.57207031 -5.90230469 2.26914062 -5.24023438 1.95703125 C-3.35546875 1.1171875 -3.35546875 1.1171875 0 0 Z " fill="#7C6055" transform="translate(298,343)"/>
<path d="M0 0 C3.10742423 1.46818668 5.90471739 3.20025 8.75 5.125 C9.94882813 5.93324219 9.94882813 5.93324219 11.171875 6.7578125 C11.77515625 7.16773438 12.3784375 7.57765625 13 8 C12.34 8.66 11.68 9.32 11 10 C8 10 8 10 5.5 7.8125 C3.26899331 5.30261747 1.59618071 2.94033289 0 0 Z " fill="#76584F" transform="translate(228,327)"/>
<path d="M0 0 C-1.40844718 3.21524305 -3.10344786 5.32183868 -5.625 7.75 C-6.57246094 8.67039062 -6.57246094 8.67039062 -7.5390625 9.609375 C-8.02117187 10.06828125 -8.50328125 10.5271875 -9 11 C-9.99 10.67 -10.98 10.34 -12 10 C-10.38113585 8.32737283 -8.7547271 6.66204463 -7.125 5 C-6.22007812 4.071875 -5.31515625 3.14375 -4.3828125 2.1875 C-2 0 -2 0 0 0 Z " fill="#715147" transform="translate(329,320)"/>
<path d="M0 0 C-1.72744016 0.65043719 -3.4570369 1.29514844 -5.1875 1.9375 C-6.15042969 2.29714844 -7.11335938 2.65679687 -8.10546875 3.02734375 C-10.7368278 3.91156562 -13.26894908 4.52568586 -16 5 C-15.67 4.01 -15.34 3.02 -15 2 C-12.63671875 1.015625 -12.63671875 1.015625 -9.6875 0.25 C-8.72199219 -0.01296875 -7.75648438 -0.2759375 -6.76171875 -0.546875 C-4.0629274 -0.98967528 -2.54716045 -0.89543883 0 0 Z " fill="#76574C" transform="translate(287,351)"/>
<path d="M0 0 C0.66 0 1.32 0 2 0 C1.39301257 4.12751449 -0.03810791 7.3321148 -2 11 C-4.35953094 8.64046906 -4.49141413 7.22104383 -5 4 C-4.01 4.33 -3.02 4.66 -2 5 C-1.34 3.35 -0.68 1.7 0 0 Z " fill="#735347" transform="translate(353,213)"/>
<path d="M0 0 C2.31 0.33 4.62 0.66 7 1 C7.33 1.99 7.66 2.98 8 4 C7.34 4.66 6.68 5.32 6 6 C2.70720291 5.68134222 1.13464912 4.45484649 -1 2 C-0.67 1.34 -0.34 0.68 0 0 Z " fill="#7F6052" transform="translate(235,22)"/>
<path d="M0 0 C1.32 1.32 2.64 2.64 4 4 C3.67 4.66 3.34 5.32 3 6 C0.4375 6.625 0.4375 6.625 -2 7 C-2.66 5.68 -3.32 4.36 -4 3 C-3.01 2.67 -2.02 2.34 -1 2 C-0.67 1.34 -0.34 0.68 0 0 Z " fill="#7D5B4F" transform="translate(85,391)"/>
<path d="M0 0 C2.31 0.33 4.62 0.66 7 1 C6.01 2.98 5.02 4.96 4 7 C2.35 6.01 0.7 5.02 -1 4 C-0.67 2.68 -0.34 1.36 0 0 Z " fill="#7B5C50" transform="translate(437,351)"/>
<path d="M0 0 C-0.99 1.485 -0.99 1.485 -2 3 C-6.29 2.67 -10.58 2.34 -15 2 C-15 1.67 -15 1.34 -15 1 C-10.03926578 -0.32286246 -5.08888488 -0.08893197 0 0 Z " fill="#8A6D63" transform="translate(245,336)"/>
<path d="M0 0 C1.09658936 3.28976808 0.79953138 4.71303767 0 8 C-2.64 8.33 -5.28 8.66 -8 9 C-6.8553125 7.88625 -6.8553125 7.88625 -5.6875 6.75 C-3.5606298 4.5736677 -1.7440044 2.47832204 0 0 Z " fill="#EDE7E4" transform="translate(267,327)"/>
<path d="M0 0 C1.32 0 2.64 0 4 0 C3.67 0.66 3.34 1.32 3 2 C2.01 1.34 1.02 0.68 0 0 Z M-3 2 C-1.02 2 0.96 2 3 2 C3 2.66 3 3.32 3 4 C3.99 4.66 4.98 5.32 6 6 C3.36 5.67 0.72 5.34 -2 5 C-2.33 4.01 -2.66 3.02 -3 2 Z " fill="#836559" transform="translate(345,466)"/>
<path d="M0 0 C-8.42857143 2.42857143 -8.42857143 2.42857143 -13 1 C-12.67 0.34 -12.34 -0.32 -12 -1 C-3.71320755 -2.63018868 -3.71320755 -2.63018868 0 0 Z " fill="#7A5C52" transform="translate(271,336)"/>
<path d="M0 0 C0.99 0.66 1.98 1.32 3 2 C2.01 5.96 1.02 9.92 0 14 C-2.14014979 9.71970042 -2.15816979 9.11227246 -1.125 4.75 C-0.92132813 3.85796875 -0.71765625 2.9659375 -0.5078125 2.046875 C-0.34023437 1.37140625 -0.17265625 0.6959375 0 0 Z " fill="#81655C" transform="translate(163,222)"/>
<path d="M0 0 C0.33 0.99 0.66 1.98 1 3 C-0.65 4.32 -2.3 5.64 -4 7 C-4.66 5.35 -5.32 3.7 -6 2 C-2.25 0 -2.25 0 0 0 Z " fill="#7D5C51" transform="translate(52,331)"/>
<path d="M0 0 C2.60691842 2.60691842 2.70416963 4.37607794 3 8 C2.01 9.485 2.01 9.485 1 11 C0.63743142 9.5437328 0.28520207 8.08488815 -0.0625 6.625 C-0.35833984 5.40683594 -0.35833984 5.40683594 -0.66015625 4.1640625 C-1 2 -1 2 0 0 Z " fill="#90786D" transform="translate(145,279)"/>
<path d="M0 0 C4.05606165 0.46800711 7.46588679 0.87953208 11 3 C4.6 4.23076923 4.6 4.23076923 1.5625 3.0625 C1.046875 2.711875 0.53125 2.36125 0 2 C0 1.34 0 0.68 0 0 Z " fill="#704E40" transform="translate(219,353)"/>
<path d="M0 0 C1.6490302 0.61651583 3.29415841 1.24347742 4.9375 1.875 C6.31228516 2.39707031 6.31228516 2.39707031 7.71484375 2.9296875 C10 4 10 4 11 6 C6.64477147 5.49357808 3.55760365 4.61588503 0 2 C0 1.34 0 0.68 0 0 Z " fill="#704F42" transform="translate(205,326)"/>
<path d="M0 0 C4.75 0.75 4.75 0.75 7 3 C6.67 4.32 6.34 5.64 6 7 C4.02 4.69 2.04 2.38 0 0 Z " fill="#85695F" transform="translate(306,187)"/>
<path d="M0 0 C0.99 0.66 1.98 1.32 3 2 C2.34 3.65 1.68 5.3 1 7 C-0.32 6.34 -1.64 5.68 -3 5 C-3 4.01 -3 3.02 -3 2 C-2.01 2 -1.02 2 0 2 C0 1.34 0 0.68 0 0 Z " fill="#745144" transform="translate(48,137)"/>
<path d="M0 0 C0.99 0.66 1.98 1.32 3 2 C2.34 3.65 1.68 5.3 1 7 C-1.475 6.01 -1.475 6.01 -4 5 C-3.34 4.67 -2.68 4.34 -2 4 C-1.67 3.01 -1.34 2.02 -1 1 C-0.67 0.67 -0.34 0.34 0 0 Z " fill="#805D50" transform="translate(390,92)"/>
<path d="M0 0 C4.62 0 9.24 0 14 0 C12.515 1.485 12.515 1.485 11 3 C8.30078125 2.85546875 8.30078125 2.85546875 5.3125 2.1875 C4.31863281 1.97480469 3.32476562 1.76210938 2.30078125 1.54296875 C1.54152344 1.36378906 0.78226562 1.18460937 0 1 C0 0.67 0 0.34 0 0 Z " fill="#F1ECE8" transform="translate(281,473)"/>
<path d="M0 0 C0.66 1.32 1.32 2.64 2 4 C0.02 4.99 0.02 4.99 -2 6 C-2.66 5.34 -3.32 4.68 -4 4 C-3.67 3.01 -3.34 2.02 -3 1 C-2.01 0.67 -1.02 0.34 0 0 Z " fill="#7D5B4F" transform="translate(71,396)"/>
<path d="M0 0 C0.99 1.32 1.98 2.64 3 4 C1 7 1 7 -2 9 C-2.20140476 5.37471432 -1.85776765 3.13498292 0 0 Z " fill="#816154" transform="translate(80,381)"/>
<path d="M0 0 C2.18975773 3.28463659 2.99806563 6.20696275 4 10 C3.01 10 2.02 10 1 10 C-1.125 3.375 -1.125 3.375 0 0 Z " fill="#866960" transform="translate(216,299)"/>
<path d="M0 0 C2 4 2 4 1.125 7.25 C0.75375 8.1575 0.3825 9.065 0 10 C-0.99 10 -1.98 10 -3 10 C-2.01 6.7 -1.02 3.4 0 0 Z " fill="#816557" transform="translate(148,207)"/>
<path d="M0 0 C0.66 0 1.32 0 2 0 C0.84414715 3.91211733 -0.35534962 6.8745041 -3 10 C-2.25 3.375 -2.25 3.375 0 0 Z " fill="#745548" transform="translate(152,200)"/>
<path d="M0 0 C3.37503669 1.1858237 5.64722731 2.27573689 8 5 C7.01 5 6.02 5 5 5 C4.67 5.99 4.34 6.98 4 8 C2.68 5.36 1.36 2.72 0 0 Z " fill="#E8E0DB" transform="translate(413,112)"/>
<path d="M0 0 C1.1725131 0.95117134 2.33787015 1.91117009 3.5 2.875 C4.47453125 3.67550781 4.47453125 3.67550781 5.46875 4.4921875 C5.9740625 4.98976563 6.479375 5.48734375 7 6 C7 6.66 7 7.32 7 8 C4.13792848 6.71700242 1.9754912 5.469364 0 3 C0 2.01 0 1.02 0 0 Z " fill="#6E4F43" transform="translate(166,319)"/>
<path d="M0 0 C1.32 1.32 2.64 2.64 4 4 C3.34 5.65 2.68 7.3 2 9 C1.01 9 0.02 9 -1 9 C-1 8.01 -1 7.02 -1 6 C-0.34 5.67 0.32 5.34 1 5 C0.67 3.35 0.34 1.7 0 0 Z " fill="#7C5B50" transform="translate(472,216)"/>
<path d="M0 0 C0.66 0.99 1.32 1.98 2 3 C0.625 6.6875 0.625 6.6875 -1 10 C-1.66 10 -2.32 10 -3 10 C-2.49287967 6.28111761 -1.88391785 3.26545761 0 0 Z " fill="#76564A" transform="translate(167,213)"/>
<path d="M0 0 C0.99 0.33 1.98 0.66 3 1 C2.67 1.33 2.34 1.66 2 2 C2.66 2.66 3.32 3.32 4 4 C2.35 4.66 0.7 5.32 -1 6 C-1 2 -1 2 0 0 Z " fill="#745144" transform="translate(121,86)"/>
<path d="M0 0 C1.98 0 3.96 0 6 0 C5.01 0.66 4.02 1.32 3 2 C3.99 2.99 4.98 3.98 6 5 C4.02 5 2.04 5 0 5 C0 3.35 0 1.7 0 0 Z " fill="#745043" transform="translate(232,23)"/>
<path d="M0 0 C1.65 0 3.3 0 5 0 C4.67 1.65 4.34 3.3 4 5 C2.68 5 1.36 5 0 5 C0 3.35 0 1.7 0 0 Z " fill="#735043" transform="translate(256,22)"/>
<path d="M0 0 C1.11375 0.3403125 1.11375 0.3403125 2.25 0.6875 C0.11535088 3.14234649 -1.45720291 4.36884222 -4.75 4.6875 C-5.41 4.0275 -6.07 3.3675 -6.75 2.6875 C-4.29511132 0.41445492 -3.41240272 -0.38777304 0 0 Z " fill="#805F54" transform="translate(137.75,434.3125)"/>
<path d="M0 0 C3.3 0.33 6.6 0.66 10 1 C10 1.33 10 1.66 10 2 C8.35 2 6.7 2 5 2 C5 2.66 5 3.32 5 4 C3.0625 3.6875 3.0625 3.6875 1 3 C0.67 2.01 0.34 1.02 0 0 Z " fill="#EDE7E3" transform="translate(224,356)"/>
<path d="M0 0 C1.95418308 2.93127462 2.64700993 4.55834679 3 8 C2.34 8.66 1.68 9.32 1 10 C-0.83691257 6.21812119 -1.15837626 4.05431692 0 0 Z " fill="#7C6257" transform="translate(278,194)"/>
<path d="M0 0 C0.33 0.66 0.66 1.32 1 2 C-1.31 4.64 -3.62 7.28 -6 10 C-6 6.41087588 -5.33563446 5.89142971 -3 3.3125 C-2.443125 2.68988281 -1.88625 2.06726563 -1.3125 1.42578125 C-0.879375 0.95527344 -0.44625 0.48476562 0 0 Z " fill="#EFE8E1" transform="translate(170,178)"/>
<path d="M0 0 C0.99 0.33 1.98 0.66 3 1 C3 1.66 3 2.32 3 3 C2.34 3 1.68 3 1 3 C1 3.99 1 4.98 1 6 C0.01 5.67 -0.98 5.34 -2 5 C-1.34 3.35 -0.68 1.7 0 0 Z " fill="#735041" transform="translate(51,334)"/>
<path d="M0 0 C0.66 0 1.32 0 2 0 C5 5.75 5 5.75 5 8 C4.01 7.67 3.02 7.34 2 7 C0.8125 3.4375 0.8125 3.4375 0 0 Z " fill="#745549" transform="translate(218,309)"/>
<path d="M0 0 C0.66 0.33 1.32 0.66 2 1 C0.02 3.31 -1.96 5.62 -4 8 C-4.33 7.01 -4.66 6.02 -5 5 C-3.35 3.35 -1.7 1.7 0 0 Z " fill="#6F4D41" transform="translate(316,303)"/>
<path d="M0 0 C0.99 0 1.98 0 3 0 C3.66 1.65 4.32 3.3 5 5 C3.68 5.33 2.36 5.66 1 6 C0.67 4.02 0.34 2.04 0 0 Z " fill="#826358" transform="translate(261,489)"/>
<path d="M0 0 C1.8125 0.1875 1.8125 0.1875 4 1 C5.75 3.5625 5.75 3.5625 7 6 C6.01 6 5.02 6 4 6 C1.8125 3 1.8125 3 0 0 Z " fill="#765B4E" transform="translate(230,368)"/>
<path d="M0 0 C1.08667969 0.29197266 1.08667969 0.29197266 2.1953125 0.58984375 C2.74960938 0.74582031 3.30390625 0.90179688 3.875 1.0625 C3.215 1.7225 2.555 2.3825 1.875 3.0625 C-1.56665321 2.70950993 -3.19372538 2.01668308 -6.125 0.0625 C-3.57797384 -1.21101308 -2.6967055 -0.73941925 0 0 Z " fill="#7E5F57" transform="translate(220.125,331.9375)"/>
<path d="M0 0 C0.33 0 0.66 0 1 0 C2.85072153 5.14089313 3.21474076 7.95531271 1 13 C0.67 13 0.34 13 0 13 C0 8.71 0 4.42 0 0 Z " fill="#8E6F61" transform="translate(285,244)"/>
<path d="M0 0 C0.66 0 1.32 0 2 0 C2.625 2.875 2.625 2.875 3 6 C2.34 6.66 1.68 7.32 1 8 C0.67 5.36 0.34 2.72 0 0 Z " fill="#8E7367" transform="translate(328,217)"/>
<path d="M0 0 C4.875 4.625 4.875 4.625 6 8 C2.83884224 6.63016497 2.0072908 6.0109362 0 3 C0 2.01 0 1.02 0 0 Z " fill="#704D42" transform="translate(266,173)"/>
<path d="M0 0 C2.475 0.495 2.475 0.495 5 1 C5.33 2.65 5.66 4.3 6 6 C5.01 5.34 4.02 4.68 3 4 C3 3.34 3 2.68 3 2 C2.01 1.67 1.02 1.34 0 1 C0 0.67 0 0.34 0 0 Z " fill="#836B62" transform="translate(260,169)"/>
<path d="M0 0 C0.99 0.33 1.98 0.66 3 1 C2.34 1.66 1.68 2.32 1 3 C1.66 3.66 2.32 4.32 3 5 C1.35 5.33 -0.3 5.66 -2 6 C-1.34 4.02 -0.68 2.04 0 0 Z " fill="#725042" transform="translate(165,60)"/>
</svg>
